<svg xmlns="http://www.w3.org/2000/svg" xmlns:xlink="http://www.w3.org/1999/xlink" viewBox="0 0 1755.17 1209.02"><defs><style>.cls-1{fill:none;}.cls-2{fill:#fafafa;}.cls-3{fill:#182c2d;}.cls-4{fill:#edbc20;}.cls-5{fill:#49b577;}.cls-6{clip-path:url(#clip-path);}.cls-7{fill:#223f3f;}.cls-8{fill:#4ea56d;}</style><clipPath id="clip-path" transform="translate(105.14)"><rect class="cls-1" width="882" height="1080"/></clipPath></defs><g id="Camada_2" data-name="Camada 2"><g id="Camada_1-2" data-name="Camada 1"><rect class="cls-2" x="105.14" width="882" height="1080"/><path class="cls-3" d="M368.56,710.28a192.43,192.43,0,0,0,44.27-58.61,201.82,201.82,0,0,0,8.52-20.18c1.34-3.69-1.5-8.37-5.23-9.22a7.7,7.7,0,0,0-9.23,5.24q-1.69,4.69-3.63,9.3L404,635a187.68,187.68,0,0,1-14.83,28.12c-2.88,4.48-5.92,8.9-9.22,13.09.06-.07,1.16-1.48.41-.53-.17.22-.34.44-.52.65L378.56,678c-.87,1.08-1.76,2.15-2.65,3.21q-2.55,3-5.22,5.93-6.06,6.58-12.73,12.56a7.55,7.55,0,0,0,0,10.61,7.67,7.67,0,0,0,10.6,0Z" transform="translate(105.14)"/><path class="cls-3" d="M181.64,804.29a217.61,217.61,0,0,1,17.54-29.41c1.63-2.3,3.36-4.53,5-6.8-1.47,2,.07-.09.39-.49q.65-.83,1.32-1.65c.88-1.1,1.77-2.19,2.68-3.27Q214,756.18,220,750.12q6.81-6.95,14.23-13.27c3-2.56,2.82-8,0-10.61-3.19-2.93-7.41-2.73-10.61,0a224.31,224.31,0,0,0-45.49,53.43q-5.09,8.31-9.39,17a8,8,0,0,0-.76,5.78,7.69,7.69,0,0,0,3.45,4.49c3.39,1.79,8.41,1.06,10.26-2.69Z" transform="translate(105.14)"/><path class="cls-3" d="M263.18,743a135.09,135.09,0,0,0-14.47,41.83c-2.63,15.82-2.65,31.87-3,47.86l-.59,27,12.81-5.3a33.11,33.11,0,0,0-13.76-8.26,7.58,7.58,0,0,0-9.23,5.24,7.67,7.67,0,0,0,5.24,9.23c.79.24,1.56.52,2.32.83l-1.79-.76a26,26,0,0,1,4.17,2.22c.29.19.56.4.85.59,1.24.85-1.34-1.17-.22-.16.61.55,1.23,1.09,1.81,1.68a7.54,7.54,0,0,0,12.8-5.31l.59-27c.19-8.84.29-17.69.75-26.53.27-5,.68-10,1.33-15l-.26,2a130.39,130.39,0,0,1,9.07-33.36l-.76,1.79q2.39-5.62,5.29-11c1.86-3.45,1-8.32-2.69-10.26-3.49-1.85-8.28-1-10.26,2.69Z" transform="translate(105.14)"/><path class="cls-3" d="M310.7,745.53q2.9,5.38,5.29,11l-.76-1.79a130.39,130.39,0,0,1,9.07,33.36l-.27-2a252.2,252.2,0,0,1,1.75,26.21c.22,8.94.39,17.88.59,26.82l.33,15.49a7.54,7.54,0,0,0,12.81,5.31c.58-.59,1.19-1.14,1.81-1.68,1-.84-1.13.8-.39.28l1-.71a26.45,26.45,0,0,1,4.17-2.22l-1.79.76c.77-.31,1.54-.59,2.33-.83,3.74-1.16,6.51-5.29,5.24-9.23-1.22-3.77-5.22-6.48-9.23-5.24a33.11,33.11,0,0,0-13.76,8.26l12.8,5.3c-.34-15.72-.53-31.46-1.07-47.18-.52-15.45-2.14-30.89-6.85-45.67A140.75,140.75,0,0,0,323.65,738a7.57,7.57,0,0,0-10.26-2.69,7.65,7.65,0,0,0-2.69,10.26Z" transform="translate(105.14)"/><path class="cls-4" d="M263.22,650.69c18.62-7.3,40.4-9.65,60-4.46s36,17.85,44.49,33.56a57.9,57.9,0,0,1,2,50.42c-9.21,21.38-31.53,38.44-57.75,44.13s-55.6-.14-76-15.09c-6-4.42-11.35-9.63-14.87-15.66-6-10.39-6.4-22.41-6.33-34,0-9.89,1.08-20.94,6.79-29.11C231.33,666.45,246.13,657.39,263.22,650.69Z" transform="translate(105.14)"/><path class="cls-3" d="M240.67,670.78q11-4.95,22.18-9.66l-1.79.76q27.75-11.71,56.12-21.86,8.1-2.88,16.22-5.65c3.71-1.25,6.54-5.21,5.24-9.22-1.19-3.68-5.25-6.59-9.22-5.24q-38.39,13-75.7,28.92-10.35,4.39-20.62,9a7.53,7.53,0,0,0-3.45,4.48,7.67,7.67,0,0,0,.76,5.78,7.59,7.59,0,0,0,4.48,3.45,8.66,8.66,0,0,0,5.78-.76Z" transform="translate(105.14)"/><path class="cls-3" d="M287.27,606.47a425.4,425.4,0,0,1-15.93,66.87q-3,9.24-6.45,18.35a7.5,7.5,0,0,0,11,8.47,8.48,8.48,0,0,0,3.45-4.48,424.91,424.91,0,0,0,19-66.07q1.92-9.54,3.4-19.16a8.2,8.2,0,0,0-.75-5.77,7.52,7.52,0,0,0-10.27-2.7c-1.53,1-3.15,2.6-3.44,4.49Z" transform="translate(105.14)"/><path class="cls-3" d="M255.41,632.49A110.09,110.09,0,0,1,275.7,644.4l1.05.8c.66.49-.69-.54-.64-.5l.69.54c.75.6,1.49,1.2,2.22,1.81,1.54,1.29,3,2.61,4.51,4,3,2.75,5.77,5.64,8.6,8.52,3.27,3.3,6.56,6.58,10.08,9.61a7.94,7.94,0,0,0,5.3,2.2,7.61,7.61,0,0,0,5.3-2.2c2.58-2.81,3.18-7.87,0-10.6-6.23-5.38-11.72-11.53-17.68-17.2a119.86,119.86,0,0,0-20.08-15.45A107.7,107.7,0,0,0,263,619.54a8.12,8.12,0,0,0-5.78-.76,7.63,7.63,0,0,0-4.48,3.45c-1.74,3.28-1.13,8.53,2.69,10.26Z" transform="translate(105.14)"/><path class="cls-3" d="M266.23,723.1v-1.3a5.63,5.63,0,0,0-.64-2.89A5.54,5.54,0,0,0,264,716.5a8.28,8.28,0,0,0-5.31-2.2l-2,.27a7.46,7.46,0,0,0-3.31,1.93L252.26,718a7.51,7.51,0,0,0-1,3.79v1.3a5.66,5.66,0,0,0,.65,2.89,6.75,6.75,0,0,0,4,4,5.66,5.66,0,0,0,2.89.65l2-.27A7.55,7.55,0,0,0,264,728.4l1.17-1.52a7.4,7.4,0,0,0,1-3.78Z" transform="translate(105.14)"/><path class="cls-3" d="M330.77,723.91c3.93,0,7.68-3.45,7.5-7.5a7.63,7.63,0,0,0-7.5-7.5c-3.92,0-7.68,3.45-7.5,7.5a7.63,7.63,0,0,0,7.5,7.5Z" transform="translate(105.14)"/><path class="cls-3" d="M288.46,752.38a27.3,27.3,0,0,0,26-5.49,4.52,4.52,0,0,0,0-6.36,4.61,4.61,0,0,0-6.36,0l-.51.43c-.55.47.12,0,.12-.08,0,.13-1,.67-1.1.76a23.15,23.15,0,0,1-2.33,1.31l-.6.29c-.69.32.15-.06.15-.06s-1.15.42-1.26.45a21.84,21.84,0,0,1-2.75.73l-.66.12c-.12,0-.88.14-.23,0s-.1,0-.23,0l-.67.06a23.78,23.78,0,0,1-2.67,0l-1.33-.11c-.64,0,.83.15.2,0l-.66-.11a23.65,23.65,0,0,1-2.75-.72,4.52,4.52,0,0,0-5.53,3.14,4.6,4.6,0,0,0,3.14,5.54Z" transform="translate(105.14)"/><path class="cls-5" d="M256.85,439.52a2.64,2.64,0,0,1-.37,1.71,1.47,1.47,0,0,1-1.13.4l-.35-.17-.42-.28-.46-.27a18.71,18.71,0,0,0-2.63-1.07,10.87,10.87,0,0,0-3.62-.69,2.7,2.7,0,0,0-2.45,1.21q-.78,1.22-.78,5a2.26,2.26,0,0,0,.67,1.72,2.51,2.51,0,0,0,1.83.65,5.32,5.32,0,0,0,2.59-.82,5,5,0,0,1,2-.82c.4,0,.75.26,1,.79a3.71,3.71,0,0,1,.45,1.88c0,2-.22,3.18-.65,3.63l-.52.3a3,3,0,0,1-1.84-.53A4.52,4.52,0,0,0,248,451c-1.48,0-2.48.31-3,.94-.24.31-.37,1.38-.37,3.21a6.62,6.62,0,0,0,1.12,4.17c.39.51,1.25.76,2.57.76a13.29,13.29,0,0,0,5.09-1.36,19.77,19.77,0,0,1,3.55-1.36q.84,0,.84,1.59v.7a4.48,4.48,0,0,1-.39,1.52,3.3,3.3,0,0,1-1.21,1.53,5.11,5.11,0,0,1-2.7.54H239.37q-3.24,0-3.24-.84v-.62c0-.44.4-.89,1.2-1.33a2.63,2.63,0,0,0,1.41-1.43q.19-.78.2-9a77.74,77.74,0,0,0-.27-9.3,3.92,3.92,0,0,0-1.37-2,2.49,2.49,0,0,1-1.09-1.81c0-.43.46-.68,1.4-.74s4-.08,9.24-.08l5.08,0h.82a5,5,0,0,1,2.77.56A3.29,3.29,0,0,1,256.85,439.52Z" transform="translate(105.14)"/><path class="cls-5" d="M283.37,461.85c0,.48-.39.83-1.18,1.06a15.9,15.9,0,0,1-4,.34,7.84,7.84,0,0,1-3.33-.39,1.12,1.12,0,0,1-.55-.92,4.58,4.58,0,0,1,.5-1.64,7.35,7.35,0,0,0,.61-1.75,43.51,43.51,0,0,0,.12-4.5,14.12,14.12,0,0,0-.65-5.22,2.57,2.57,0,0,0-2.57-1.4,3.69,3.69,0,0,0-3.11,1.66,7.51,7.51,0,0,0-.8,4.09,21,21,0,0,0,.9,7.18,6.61,6.61,0,0,1,.55,1.72q0,.75-.9.93a25.62,25.62,0,0,1-3.9.18,9.1,9.1,0,0,1-3.62-.4,1.21,1.21,0,0,1-.63-1.08c0-.46.35-.91,1-1.37a2.51,2.51,0,0,0,1.17-1.24,43,43,0,0,0,.14-5,23.9,23.9,0,0,0-.29-5.15,6.15,6.15,0,0,0-1.18-1.75c-.58-.67-.88-1-.88-1v-.41c0-.22.17-.42.49-.6a10.41,10.41,0,0,1,5.06-1,1.86,1.86,0,0,1,1.57.92c.43.61.74.92.93.92a4.31,4.31,0,0,0,1.38-.64c.72-.42,1.11-.65,1.18-.67a7,7,0,0,1,2.91-.73H275a5.12,5.12,0,0,1,4.88,2.74c.62,1.18.94,4,.94,8.53a17.93,17.93,0,0,0,.23,4.13,3.45,3.45,0,0,0,1.28,1.16C283,461,283.37,461.44,283.37,461.85Z" transform="translate(105.14)"/><path class="cls-5" d="M286.32,447c-.57-.39-.86-.77-.86-1.14s.35-.74,1-1.1a4.55,4.55,0,0,0,1.29-.88,9.1,9.1,0,0,0,.81-1.84,8.78,8.78,0,0,1,1.18-2.31,2,2,0,0,1,1.64-.81,1.54,1.54,0,0,1,1.47.82,9.22,9.22,0,0,1,.51,1.76,3.67,3.67,0,0,0,.77,1.77,6.29,6.29,0,0,0,1.72.87l1.31.5a1.57,1.57,0,0,1,.67,1.25c0,.42-.62.79-1.85,1.11a3.47,3.47,0,0,0-2.36,1.49c-.35.66-.52,2.32-.52,5s.2,4.38.61,5.17a2.12,2.12,0,0,0,2,1.2l.7-.06c.31,0,.65,0,1,0,.79,0,1.19.3,1.19.9a2.08,2.08,0,0,1-1.45,1.83,10.15,10.15,0,0,1-4.37,1,5,5,0,0,1-3.79-2,8.27,8.27,0,0,1-1.12-4.69l0-.41c0-.29,0-.61,0-1v-1.15a26.47,26.47,0,0,0-.54-5.76A2.36,2.36,0,0,0,286.32,447Z" transform="translate(105.14)"/><path class="cls-5" d="M314.62,444.6a2.78,2.78,0,0,1,2.18.68,2.46,2.46,0,0,1,.58,1.65,2.9,2.9,0,0,1-.52,1.7,1.44,1.44,0,0,1-1.17.76,4.87,4.87,0,0,1-1.81-.51,4.85,4.85,0,0,0-1.78-.51,2.3,2.3,0,0,0-1.4.66,3.6,3.6,0,0,0-1.09,1.9,17.89,17.89,0,0,0-.3,3.86,9.85,9.85,0,0,0,.37,3.4,9.7,9.7,0,0,0,1.53,2,3.5,3.5,0,0,1,1.15,2.05q0,.93-4.53.93h-2.09c-.28,0-.56,0-.84,0l-.41,0c-.28,0-.56,0-.86,0-1.37,0-2.05-.3-2.05-.88a2.47,2.47,0,0,1,1-1.78,3.91,3.91,0,0,0,1.25-1.62,27.94,27.94,0,0,0,.23-5,25.62,25.62,0,0,0-.27-5.08,2.63,2.63,0,0,0-1.27-1.44c-.67-.39-1-.81-1-1.24,0-.59.45-1,1.35-1.27a14.35,14.35,0,0,1,3.67-.54,4.38,4.38,0,0,1,2.2.37,2.2,2.2,0,0,1,.54,1c.2.56.44.84.71.84a2,2,0,0,0,.75-.36A7.26,7.26,0,0,1,314.62,444.6Z" transform="translate(105.14)"/><path class="cls-5" d="M325.25,455.85a4.2,4.2,0,0,0,1.83,3.38,5.47,5.47,0,0,0,3.48,1.07,11.32,11.32,0,0,0,2.84-.54,14.93,14.93,0,0,1,2.18-.55c.59,0,.88.32.88,1s-.78,1.52-2.33,2.29a10.68,10.68,0,0,1-4.84,1.16h-1a8.79,8.79,0,0,1-3.22-.64,7.93,7.93,0,0,1-4.61-4.38,10.26,10.26,0,0,1-.93-4.08v-.9a10.69,10.69,0,0,1,.68-3.8,8.54,8.54,0,0,1,4.55-5,9.68,9.68,0,0,1,4.1-.9h.45a7.71,7.71,0,0,1,5.37,2,7,7,0,0,1,1.77,2.54,7.8,7.8,0,0,1,.61,3,2,2,0,0,1-1.5,2,29.81,29.81,0,0,1-7.81.68,3.71,3.71,0,0,0-2,.38A1.53,1.53,0,0,0,325.25,455.85Zm3.81-9.3h-.57a3.18,3.18,0,0,0-2.35,1.28,4.51,4.51,0,0,0-1.13,3.06v.31c0,.48.27.73.81.73l.19,0h1.39l.1,0,3.26-.19a2.31,2.31,0,0,1,.39-.06c.66,0,1-.34,1-1V450a3.54,3.54,0,0,0-.93-2.38A2.81,2.81,0,0,0,329.06,446.55Z" transform="translate(105.14)"/><path class="cls-5" d="M355.89,455.85a4.21,4.21,0,0,0,1.84,3.38,5.43,5.43,0,0,0,3.48,1.07,11.48,11.48,0,0,0,2.84-.54,14.3,14.3,0,0,1,2.18-.55q.87,0,.87,1c0,.75-.77,1.52-2.33,2.29a10.67,10.67,0,0,1-4.83,1.16h-1a8.71,8.71,0,0,1-3.22-.64,7.93,7.93,0,0,1-4.61-4.38,10.12,10.12,0,0,1-.94-4.08v-.9a10.91,10.91,0,0,1,.68-3.8,8.57,8.57,0,0,1,4.55-5,9.73,9.73,0,0,1,4.11-.9H360a7.71,7.71,0,0,1,5.37,2,7.11,7.11,0,0,1,1.76,2.54,7.81,7.81,0,0,1,.62,3,2,2,0,0,1-1.5,2,29.91,29.91,0,0,1-7.82.68,3.74,3.74,0,0,0-2,.38A1.53,1.53,0,0,0,355.89,455.85Zm3.81-9.3h-.56a3.2,3.2,0,0,0-2.36,1.28,4.5,4.5,0,0,0-1.12,3.06v.31c0,.48.27.73.8.73l.2,0H358l.1,0,3.26-.19.39-.06a.89.89,0,0,0,1-1V450a3.5,3.5,0,0,0-.94-2.38A2.78,2.78,0,0,0,359.7,446.55Z" transform="translate(105.14)"/><path class="cls-5" d="M396.81,459.05c.51,0,.76.35.76,1.05s-.82,1.45-2.46,2.27a10.69,10.69,0,0,1-4.8,1.23h-.45a9,9,0,0,1-3.67-.76,8.36,8.36,0,0,1-4.69-5.06,10.26,10.26,0,0,1-.63-3.49v-.47a9.92,9.92,0,0,1,2.6-6.84,8.63,8.63,0,0,1,3.18-2.21,9.81,9.81,0,0,1,3.83-.77,12.06,12.06,0,0,1,5.73,1.11,2.29,2.29,0,0,1,1.19,2.17c0,1.81-.58,2.71-1.72,2.71a3.87,3.87,0,0,1-2.49-1.54,4.15,4.15,0,0,0-3-1.54q-1.93,0-3.18,2.4a10,10,0,0,0-.72,4.31v.08a7.22,7.22,0,0,0,1.46,4.67,4.63,4.63,0,0,0,3.77,1.86,10.63,10.63,0,0,0,3.11-.59A12.66,12.66,0,0,1,396.81,459.05Z" transform="translate(105.14)"/><path class="cls-5" d="M409.94,443.88h1a9.23,9.23,0,0,1,8.38,5.9,10.8,10.8,0,0,1,.67,3.71v.35a10.31,10.31,0,0,1-.82,4,9.31,9.31,0,0,1-2.21,3.25,9.62,9.62,0,0,1-6.64,2.61,5.82,5.82,0,0,1-.59,0,9.5,9.5,0,0,1-3.68-.75,8.36,8.36,0,0,1-3-2,9.84,9.84,0,0,1-2.48-6.86v-.33l0-.33a10.48,10.48,0,0,1,.68-3.59,8.89,8.89,0,0,1,4.73-5A9.23,9.23,0,0,1,409.94,443.88Zm0,2.6h-.37a3.14,3.14,0,0,0-2.75,1.89,9.09,9.09,0,0,0-1.06,4.53V454a9.6,9.6,0,0,0,1.23,5,3.51,3.51,0,0,0,2.95,2.05h.37a3.23,3.23,0,0,0,2.63-1.54,6.81,6.81,0,0,0,1.12-4.09l0-.41,0-.82V454l0-.22v-.41c0-.29,0-.49,0-.62a7.8,7.8,0,0,0-1.23-4.44A3.5,3.5,0,0,0,409.92,446.48Z" transform="translate(105.14)"/><path class="cls-5" d="M422.69,436.12c0-.46.34-.8,1-1a18,18,0,0,1,5.27-.84c1,0,1.54.43,1.64,1.29q0,.31,0,10.47a109.45,109.45,0,0,0,.34,12,5.5,5.5,0,0,0,.93,2.51,18.16,18.16,0,0,1,1.48,1.76q0,.93-5.23.93h-.39l-.41,0a24.82,24.82,0,0,1-3.74-.15.72.72,0,0,1-.62-.73,3.48,3.48,0,0,1,1-1.76,5.64,5.64,0,0,0,1.21-2.5,94.57,94.57,0,0,0,.25-9.76,75.84,75.84,0,0,0-.27-9.36,3,3,0,0,0-1.38-1.64C423.06,436.83,422.69,436.44,422.69,436.12Z" transform="translate(105.14)"/><path class="cls-5" d="M455.29,461.42v.29c0,.44-.49.86-1.47,1.24a9.51,9.51,0,0,1-3.47.58,2.66,2.66,0,0,1-2.13-1.12c-.33-.41-.58-.62-.76-.62a1.91,1.91,0,0,0-.94.45,8.41,8.41,0,0,1-4.81,1.52l0,0a6,6,0,0,1-4.06-1.31,4.63,4.63,0,0,1-1.54-3.67q0-5.07,7.81-6.39a13.36,13.36,0,0,0,2.25-.45,2,2,0,0,0,1.13-2.09,3.14,3.14,0,0,0-.73-2.33,2.4,2.4,0,0,0-1.71-.71,3.51,3.51,0,0,0-2.79,1.65,3.63,3.63,0,0,1-2.91,1.65,1.9,1.9,0,0,1-1.48-.54,1.63,1.63,0,0,1-.5-1.1,3.07,3.07,0,0,1,1.8-2.74,12.71,12.71,0,0,1,6.33-1.68h1a7.53,7.53,0,0,1,3.22.72,5.19,5.19,0,0,1,2.37,2.17q.84,1.47.84,6.55a27.21,27.21,0,0,0,.32,5.85,2.13,2.13,0,0,0,1.29,1.13C455,460.73,455.29,461,455.29,461.42Zm-7.93-6.19c0-.59-.18-.88-.55-.88h-.51a4.37,4.37,0,0,1-.74.09,4.46,4.46,0,0,0-3,1,3.06,3.06,0,0,0-1.21,2.34v.45A2.52,2.52,0,0,0,442,460a1.93,1.93,0,0,0,1.52.72h.63a3.19,3.19,0,0,0,2.2-.8,2.18,2.18,0,0,0,.92-1.56,3.84,3.84,0,0,0,.08-.51l0-.31v-.84l0-.31v-.86A1.37,1.37,0,0,1,447.36,455.23Z" transform="translate(105.14)"/><path class="cls-5" d="M461.28,463.06a2.6,2.6,0,0,1-1.88-.5,1.68,1.68,0,0,1-.46-1.2,24.87,24.87,0,0,1,.37-3,24,24,0,0,0,.37-3.21l0-.47v-1.91l0-1v-3.38q0-7.56-.19-8.65a2.67,2.67,0,0,0-1-1.7c-.87-.7-1.31-1.17-1.31-1.41,0-.54.51-.95,1.54-1.23a15,15,0,0,1,3.66-.6h.45a1.54,1.54,0,0,1,1.73,1.15,28.48,28.48,0,0,1,.2,4.55,40.42,40.42,0,0,0,.1,4.2c.1.45.44.68,1,.68l.51-.17a12.19,12.19,0,0,1,4-.82A6.76,6.76,0,0,1,476,447a10,10,0,0,1,2.07,6.36v.49a9.8,9.8,0,0,1-.82,3.91,9,9,0,0,1-5,5.09,9.65,9.65,0,0,1-3.63.74h-.47a9.65,9.65,0,0,1-1.8-.25,11.94,11.94,0,0,0-2.46-.25l-.43,0c-.44,0-.73-.06-.88-.06l-.45,0C461.77,463.05,461.48,463.06,461.28,463.06Zm3.48-5.51a3.86,3.86,0,0,0,.79,2.59,2.71,2.71,0,0,0,2.18.93h.9a3.21,3.21,0,0,0,2.68-1.83,8.27,8.27,0,0,0,1.15-4.5v-1.31a8.46,8.46,0,0,0-1.19-4.75,3.42,3.42,0,0,0-2.9-1.77H468a2.8,2.8,0,0,0-2.67,1.31q-.75,1.32-.75,5.52v.39l0,.2v.95l0,.2v.39l.08,1.31C464.75,457.31,464.76,457.43,464.76,457.55Z" transform="translate(105.14)"/><path class="cls-5" d="M490.78,443.88h1a9.23,9.23,0,0,1,8.38,5.9,10.8,10.8,0,0,1,.67,3.71v.35a10.31,10.31,0,0,1-.82,4,9.31,9.31,0,0,1-2.21,3.25,9.62,9.62,0,0,1-6.64,2.61,5.82,5.82,0,0,1-.59,0,9.5,9.5,0,0,1-3.68-.75,8.36,8.36,0,0,1-3-2,9.84,9.84,0,0,1-2.48-6.86v-.33l0-.33a10.48,10.48,0,0,1,.68-3.59,8.89,8.89,0,0,1,4.73-5A9.23,9.23,0,0,1,490.78,443.88Zm0,2.6h-.37a3.14,3.14,0,0,0-2.75,1.89,9.09,9.09,0,0,0-1.06,4.53V454a9.6,9.6,0,0,0,1.23,5,3.51,3.51,0,0,0,2.95,2.05h.37a3.2,3.2,0,0,0,2.62-1.54,6.75,6.75,0,0,0,1.13-4.09l0-.41,0-.82V454l0-.22v-.41c0-.29,0-.49,0-.62a7.8,7.8,0,0,0-1.23-4.44A3.5,3.5,0,0,0,490.76,446.48Z" transform="translate(105.14)"/><path class="cls-5" d="M516.89,444.6a2.8,2.8,0,0,1,2.18.68,2.51,2.51,0,0,1,.57,1.65,3,3,0,0,1-.51,1.7,1.45,1.45,0,0,1-1.18.76,4.88,4.88,0,0,1-1.8-.51,4.85,4.85,0,0,0-1.78-.51A2.3,2.3,0,0,0,513,449a3.53,3.53,0,0,0-1.08,1.9,17.89,17.89,0,0,0-.3,3.86,5.61,5.61,0,0,0,1.89,5.42,3.44,3.44,0,0,1,1.15,2.05q0,.93-4.53.93H508c-.27,0-.55,0-.84,0l-.41,0c-.27,0-.56,0-.86,0-1.36,0-2.05-.3-2.05-.88a2.46,2.46,0,0,1,1-1.78,4,4,0,0,0,1.25-1.62,28.45,28.45,0,0,0,.22-5,26.9,26.9,0,0,0-.26-5.08,2.67,2.67,0,0,0-1.27-1.44c-.67-.39-1-.81-1-1.24,0-.59.45-1,1.35-1.27a14.48,14.48,0,0,1,3.67-.54,4.43,4.43,0,0,1,2.21.37,2.2,2.2,0,0,1,.54,1c.2.56.44.84.71.84a2,2,0,0,0,.74-.36A7.26,7.26,0,0,1,516.89,444.6Z" transform="translate(105.14)"/><path class="cls-5" d="M527.51,455.85a4.21,4.21,0,0,0,1.84,3.38,5.43,5.43,0,0,0,3.48,1.07,11.48,11.48,0,0,0,2.84-.54,14.61,14.61,0,0,1,2.18-.55c.58,0,.88.32.88,1s-.78,1.52-2.34,2.29a10.63,10.63,0,0,1-4.83,1.16h-1a8.75,8.75,0,0,1-3.22-.64,7.93,7.93,0,0,1-4.61-4.38,10.12,10.12,0,0,1-.94-4.08v-.9a10.91,10.91,0,0,1,.68-3.8,8.56,8.56,0,0,1,4.56-5,9.65,9.65,0,0,1,4.1-.9h.45a7.71,7.71,0,0,1,5.37,2,7,7,0,0,1,1.76,2.54,7.63,7.63,0,0,1,.62,3,2,2,0,0,1-1.5,2,29.85,29.85,0,0,1-7.82.68,3.74,3.74,0,0,0-2,.38A1.53,1.53,0,0,0,527.51,455.85Zm3.81-9.3h-.56a3.2,3.2,0,0,0-2.36,1.28,4.5,4.5,0,0,0-1.12,3.06v.31c0,.48.27.73.8.73l.2,0h1.38l.1,0,3.26-.19.39-.06a.89.89,0,0,0,1-1V450a3.5,3.5,0,0,0-.94-2.38A2.78,2.78,0,0,0,531.32,446.55Z" transform="translate(105.14)"/><path class="cls-5" d="M568.43,459.05c.51,0,.76.35.76,1.05s-.82,1.45-2.46,2.27a10.69,10.69,0,0,1-4.8,1.23h-.45a9,9,0,0,1-3.67-.76,8.36,8.36,0,0,1-4.69-5.06,10.25,10.25,0,0,1-.62-3.49v-.47a9.91,9.91,0,0,1,2.59-6.84,8.63,8.63,0,0,1,3.18-2.21,9.81,9.81,0,0,1,3.83-.77,12,12,0,0,1,5.73,1.11,2.29,2.29,0,0,1,1.19,2.17c0,1.81-.57,2.71-1.72,2.71a3.87,3.87,0,0,1-2.49-1.54,4.15,4.15,0,0,0-3-1.54q-1.93,0-3.18,2.4a10,10,0,0,0-.72,4.31v.08a7.22,7.22,0,0,0,1.46,4.67,4.63,4.63,0,0,0,3.77,1.86,10.69,10.69,0,0,0,3.12-.59A12.66,12.66,0,0,1,568.43,459.05Z" transform="translate(105.14)"/><path class="cls-5" d="M581.56,443.88h1a9.23,9.23,0,0,1,8.38,5.9,10.57,10.57,0,0,1,.67,3.71v.35a10.31,10.31,0,0,1-.82,4,9.31,9.31,0,0,1-2.21,3.25,9.62,9.62,0,0,1-6.64,2.61,5.82,5.82,0,0,1-.59,0,9.53,9.53,0,0,1-3.68-.75,8.36,8.36,0,0,1-3-2,9.84,9.84,0,0,1-2.48-6.86v-.33l0-.33a10.26,10.26,0,0,1,.69-3.59,8.84,8.84,0,0,1,4.72-5A9.23,9.23,0,0,1,581.56,443.88Zm0,2.6h-.37a3.14,3.14,0,0,0-2.75,1.89,9.09,9.09,0,0,0-1.06,4.53V454a9.6,9.6,0,0,0,1.23,5,3.51,3.51,0,0,0,2.95,2.05h.37a3.23,3.23,0,0,0,2.63-1.54,6.81,6.81,0,0,0,1.12-4.09l0-.41,0-.82V454l0-.22v-.41c0-.29,0-.49,0-.62a7.8,7.8,0,0,0-1.23-4.44A3.5,3.5,0,0,0,581.54,446.48Z" transform="translate(105.14)"/><path class="cls-5" d="M628,461.42q0,1.81-5.17,1.81a4.81,4.81,0,0,1-2.35-.4,1.49,1.49,0,0,1-.64-1.39l.25-1.25a35.26,35.26,0,0,0,.37-6c0-2.69-.22-4.47-.68-5.35a3,3,0,0,0-4.18-.78,3.35,3.35,0,0,0-1.2,1.45,16,16,0,0,0-.4,4.74,24.42,24.42,0,0,0,.22,4.54,6.11,6.11,0,0,0,1,1.75,3.07,3.07,0,0,1,.78,1.6c0,.38-.25.66-.75.83a17.47,17.47,0,0,1-4,.25,10.71,10.71,0,0,1-3.7-.33,1.34,1.34,0,0,1-.49-1.21,2.71,2.71,0,0,1,.65-1.14,4.52,4.52,0,0,0,.84-1.55,29.17,29.17,0,0,0,.19-4.52,15.23,15.23,0,0,0-.63-5.29,2.28,2.28,0,0,0-2.29-1.48,3.42,3.42,0,0,0-2.81,1.52,4.77,4.77,0,0,0-.8,2.93q0,1.88.18,4.38a26.93,26.93,0,0,0,.39,3.51,8.75,8.75,0,0,1,.21,1.72,1.2,1.2,0,0,1-.62,1.08,7,7,0,0,1-3,.38c-3,0-4.53-.54-4.53-1.64a2.78,2.78,0,0,1,.88-1.51,4.63,4.63,0,0,0,1-1.43,35.89,35.89,0,0,0,.12-4.28,18.6,18.6,0,0,0-.51-5.32,10,10,0,0,0-.77-1.37,3.32,3.32,0,0,1-.63-1.54c0-.49.41-.86,1.25-1.11a14.08,14.08,0,0,1,4-.66,2.15,2.15,0,0,1,1.37.83c.53.55.87.83,1,.83l.63-.35c.77-.45,1.26-.72,1.48-.82a8.16,8.16,0,0,1,3.4-.82,6,6,0,0,1,2.38.35,9.66,9.66,0,0,1,1.7,1,2.81,2.81,0,0,0,1.38.67,9.92,9.92,0,0,0,2.53-1,9.25,9.25,0,0,1,3.87-1,5,5,0,0,1,4.76,2.87q1,1.88,1,9.91a7.88,7.88,0,0,0,.22,2.49,3.49,3.49,0,0,0,1.14,1.09Q628,461.12,628,461.42Z" transform="translate(105.14)"/><path class="cls-5" d="M243.55,514a4.38,4.38,0,0,0,.86,2.73l.86.86a1.91,1.91,0,0,1,.7,1.17c0,.42-.29.71-.87.86a17.78,17.78,0,0,1-3.74.24l-.51,0a18.22,18.22,0,0,1-4.07-.26c-.51-.17-.77-.43-.77-.8a8,8,0,0,1,1-1.72,7.85,7.85,0,0,0,1.19-3.1c.05-.35.08-3.15.08-8.38s-.06-8.13-.18-8.68a2.63,2.63,0,0,0-1.25-1.56c-.71-.49-1.07-1-1.07-1.4s.3-.77.92-1a15.38,15.38,0,0,1,4.84-.86,1.22,1.22,0,0,1,.89.29,3.89,3.89,0,0,1,.55.71c.19.29.37.43.55.43a2.69,2.69,0,0,0,1-.43,14.59,14.59,0,0,1,1.72-.83,6.66,6.66,0,0,1,2.54-.4h.53a6.06,6.06,0,0,1,2.84.75,7.57,7.57,0,0,1,2.43,2,9.69,9.69,0,0,1,2,6.27,10.64,10.64,0,0,1-2.7,7.54,7.92,7.92,0,0,1-3.05,2.14,10.49,10.49,0,0,1-3.71.62l-1.48-.16-.84-.1-.39-.06C243.84,510.84,243.55,511.88,243.55,514Zm7.38-12.19,0-1.07a7.32,7.32,0,0,0-1.4-4.42,3.33,3.33,0,0,0-2.82-1.42l-.15,0a3.1,3.1,0,0,0-2.66,1.34,5.06,5.06,0,0,0-.6,2.84l0,.37-.06,1.72v1.75l0,.2v.37l0,.2v.39l0,.56,0,.74a3.71,3.71,0,0,0,.89,2.6,3,3,0,0,0,2.33,1h.35A3.67,3.67,0,0,0,250,506.8a9,9,0,0,0,.92-4.59V502Z" transform="translate(105.14)"/><path class="cls-5" d="M265.31,503.85a4.2,4.2,0,0,0,1.83,3.38,5.43,5.43,0,0,0,3.48,1.07,11.32,11.32,0,0,0,2.84-.54,14.61,14.61,0,0,1,2.18-.55c.59,0,.88.32.88,1s-.78,1.52-2.34,2.29a10.6,10.6,0,0,1-4.83,1.16h-1a8.75,8.75,0,0,1-3.22-.64,7.93,7.93,0,0,1-4.61-4.38,10.29,10.29,0,0,1-.94-4.08v-.9a10.7,10.7,0,0,1,.69-3.8,8.54,8.54,0,0,1,4.55-5,9.68,9.68,0,0,1,4.1-.9h.45a7.71,7.71,0,0,1,5.37,2,7,7,0,0,1,1.77,2.54,7.8,7.8,0,0,1,.61,3,2,2,0,0,1-1.5,2,29.81,29.81,0,0,1-7.81.68,3.69,3.69,0,0,0-2,.38A1.53,1.53,0,0,0,265.31,503.85Zm3.81-9.3h-.57a3.16,3.16,0,0,0-2.35,1.28,4.51,4.51,0,0,0-1.13,3.06v.31c0,.48.27.73.8.73l.2,0h1.39l.09,0,3.27-.19a2.31,2.31,0,0,1,.39-.06c.66,0,1-.34,1-1V498a3.5,3.5,0,0,0-.94-2.38A2.78,2.78,0,0,0,269.12,494.55Z" transform="translate(105.14)"/><path class="cls-5" d="M293.53,512.05c0-1.09-.31-1.64-.92-1.64a4.6,4.6,0,0,0-.78.25c-.44.16-.93.32-1.45.49a7.92,7.92,0,0,1-2.2.24h-.08a6.9,6.9,0,0,1-2.83-.64,7.92,7.92,0,0,1-4.22-4.93,10.29,10.29,0,0,1-.61-3.49v-1a9.53,9.53,0,0,1,.69-3.47,8.78,8.78,0,0,1,4.47-5,8.58,8.58,0,0,1,3.81-.85h1a9.19,9.19,0,0,1,2,.26,9.86,9.86,0,0,0,2.19.26c.66,0,1.19,0,1.58,0l.92-.09a9.66,9.66,0,0,1,1.07,0c1,0,1.54.88,1.54,2.65a11.65,11.65,0,0,1-.37,2.1,14.19,14.19,0,0,0-.37,3.27l0,.51v6a74.26,74.26,0,0,0,.26,8.6,3.64,3.64,0,0,0,.78,1.83,10,10,0,0,1,1.25,1.4v.37q0,.9-2.91.9l-1,0-2,0a18.06,18.06,0,0,1-3.34-.2c-.57-.14-.86-.42-.86-.83a2.11,2.11,0,0,1,.84-1.41,5,5,0,0,0,1-1.21A11.14,11.14,0,0,0,293.53,512.05Zm-8-10.72v.45a8.66,8.66,0,0,0,1.22,4.86,3.65,3.65,0,0,0,3.14,1.84l.16,0a3.09,3.09,0,0,0,2.71-1.27c.4-.56.61-2.13.61-4.73v-2.12a11.45,11.45,0,0,0-.65-4.73,2.56,2.56,0,0,0-2.5-1.21h-.53a3.42,3.42,0,0,0-3,1.93A9.56,9.56,0,0,0,285.48,501.33Z" transform="translate(105.14)"/><path class="cls-5" d="M325.13,509.73q0,1.57-4.47,1.58a3.17,3.17,0,0,1-1.82-.37,2.93,2.93,0,0,1-.8-1c-.21-.41-.38-.61-.52-.61a4.39,4.39,0,0,0-1.2.63,14.76,14.76,0,0,1-2.12,1.13,7.5,7.5,0,0,1-2.94.49,5.72,5.72,0,0,1-3.07-.79,5.2,5.2,0,0,1-2-2.26q-.72-1.49-.72-6.7a33.13,33.13,0,0,0-.22-5.7,2.41,2.41,0,0,0-1.26-1c-.69-.31-1-.7-1-1.15,0-.63.39-1,1.18-1.25a17.44,17.44,0,0,1,4.51-.49,1.6,1.6,0,0,1,1.68,1.11,27.31,27.31,0,0,1,.39,6.21,36.39,36.39,0,0,0,.33,6.43,2.66,2.66,0,0,0,2,2.19,3.57,3.57,0,0,0,.8.09,4.26,4.26,0,0,0,1.45-.27,3.67,3.67,0,0,0,1.82-1.28c.41-.57.62-2,.62-4.36a24.36,24.36,0,0,0-.35-5,7.8,7.8,0,0,0-1-2.42,3.17,3.17,0,0,1-.64-1.38q0-1.36,5-1.37h.54a1.82,1.82,0,0,1,1.38.4,3.57,3.57,0,0,1,.36,2l-.08,2.83,0,.59V501a33.1,33.1,0,0,0,.24,5.31,5.65,5.65,0,0,0,1.08,2.13A5.5,5.5,0,0,1,325.13,509.73Z" transform="translate(105.14)"/><path class="cls-5" d="M333.51,503.85a4.18,4.18,0,0,0,1.84,3.38,5.42,5.42,0,0,0,3.47,1.07,11.46,11.46,0,0,0,2.85-.54,14.64,14.64,0,0,1,2.17-.55c.59,0,.88.32.88,1s-.78,1.52-2.33,2.29a10.68,10.68,0,0,1-4.84,1.16h-.95a8.8,8.8,0,0,1-3.23-.64,8,8,0,0,1-4.61-4.38,10.26,10.26,0,0,1-.93-4.08v-.9a10.69,10.69,0,0,1,.68-3.8,8.57,8.57,0,0,1,4.55-5,9.68,9.68,0,0,1,4.1-.9h.45a7.71,7.71,0,0,1,5.37,2,7,7,0,0,1,1.77,2.54,7.81,7.81,0,0,1,.62,3,2,2,0,0,1-1.51,2,29.76,29.76,0,0,1-7.81.68,3.71,3.71,0,0,0-2,.38A1.53,1.53,0,0,0,333.51,503.85Zm3.81-9.3h-.57a3.18,3.18,0,0,0-2.35,1.28,4.5,4.5,0,0,0-1.12,3.06v.31c0,.48.26.73.8.73l.19,0h1.39l.1,0,3.26-.19a2.31,2.31,0,0,1,.39-.06.9.9,0,0,0,1-1V498a3.55,3.55,0,0,0-.94-2.38A2.79,2.79,0,0,0,337.32,494.55Z" transform="translate(105.14)"/><path class="cls-5" d="M371,509.85c0,.48-.39.83-1.18,1.06a15.9,15.9,0,0,1-4,.34,7.84,7.84,0,0,1-3.33-.39,1.12,1.12,0,0,1-.55-.92,4.38,4.38,0,0,1,.5-1.64,7.83,7.83,0,0,0,.61-1.75,43.51,43.51,0,0,0,.12-4.5,13.85,13.85,0,0,0-.66-5.22,2.55,2.55,0,0,0-2.56-1.4,3.67,3.67,0,0,0-3.11,1.66,7.51,7.51,0,0,0-.8,4.09,21,21,0,0,0,.9,7.18,6.61,6.61,0,0,1,.55,1.72q0,.75-.9.93a25.62,25.62,0,0,1-3.9.18c-2,0-3.21-.13-3.62-.4a1.21,1.21,0,0,1-.63-1.08c0-.46.35-.91,1-1.37a2.51,2.51,0,0,0,1.17-1.24,43,43,0,0,0,.14-5,22.89,22.89,0,0,0-.3-5.15,5.89,5.89,0,0,0-1.17-1.75c-.58-.67-.88-1-.88-1v-.41c0-.22.17-.42.49-.6a10.39,10.39,0,0,1,5.06-1,1.87,1.87,0,0,1,1.57.92c.42.61.73.92.93.92a4.51,4.51,0,0,0,1.38-.64c.72-.42,1.11-.65,1.18-.67A7,7,0,0,1,362,492h.62a5.12,5.12,0,0,1,4.89,2.74c.62,1.18.93,4,.93,8.53a17.62,17.62,0,0,0,.24,4.13,3.36,3.36,0,0,0,1.28,1.16C370.6,509,371,509.44,371,509.85Z" transform="translate(105.14)"/><path class="cls-5" d="M382.91,491.88h1a9.23,9.23,0,0,1,8.38,5.9,10.79,10.79,0,0,1,.66,3.71v.35a10.13,10.13,0,0,1-.82,4,9.15,9.15,0,0,1-2.2,3.25,9.62,9.62,0,0,1-6.64,2.61,5.82,5.82,0,0,1-.59,0,9.5,9.5,0,0,1-3.68-.75,8.27,8.27,0,0,1-3-2,9.84,9.84,0,0,1-2.48-6.86v-.33l0-.33a10.48,10.48,0,0,1,.68-3.59,8.89,8.89,0,0,1,4.73-5A9.23,9.23,0,0,1,382.91,491.88Zm0,2.6h-.38a3.13,3.13,0,0,0-2.74,1.89,9.09,9.09,0,0,0-1.06,4.53V502a9.6,9.6,0,0,0,1.23,5,3.51,3.51,0,0,0,2.95,2.05h.37a3.21,3.21,0,0,0,2.62-1.54,6.75,6.75,0,0,0,1.13-4.09l0-.41,0-.82V502l0-.22v-.41c0-.29,0-.49,0-.62a7.8,7.8,0,0,0-1.23-4.44A3.5,3.5,0,0,0,382.89,494.48Z" transform="translate(105.14)"/><path class="cls-5" d="M410,495a6.22,6.22,0,0,1-.24,2.17.91.91,0,0,1-.92.53c-.73,0-1.51-.53-2.35-1.58a3.88,3.88,0,0,0-3.17-1.58,2.53,2.53,0,0,0-1.74.56,1.67,1.67,0,0,0-.65,1.25,2.33,2.33,0,0,0,1.14,2,32.19,32.19,0,0,0,3.5,1.61,12.84,12.84,0,0,1,4.24,2.56,4.92,4.92,0,0,1,1.28,3.58,5.1,5.1,0,0,1-1.93,3.94,7.31,7.31,0,0,1-5,1.68h-1a14,14,0,0,1-5.68-.89c-.89-.42-1.33-1.41-1.33-3s.29-2.35.88-2.35c.74,0,1.66.61,2.76,1.82a4.81,4.81,0,0,0,3.58,1.82,3.74,3.74,0,0,0,2-.5,1.69,1.69,0,0,0,.81-1.56A2.38,2.38,0,0,0,405,505.1a21.21,21.21,0,0,0-3.27-1.59,13.37,13.37,0,0,1-3.8-2.22,5.19,5.19,0,0,1-1.7-3.93,4.69,4.69,0,0,1,2-3.87,7.39,7.39,0,0,1,4.65-1.53h.52c2.79,0,4.68.28,5.69.86A2.27,2.27,0,0,1,410,495Z" transform="translate(105.14)"/><path class="cls-5" d="M431.75,514a4.38,4.38,0,0,0,.86,2.73l.86.86a1.91,1.91,0,0,1,.7,1.17c0,.42-.29.71-.86.86a17.85,17.85,0,0,1-3.74.24l-.51,0a18.15,18.15,0,0,1-4.07-.26c-.52-.17-.78-.43-.78-.8a8,8,0,0,1,1-1.72,7.7,7.7,0,0,0,1.19-3.1c.05-.35.08-3.15.08-8.38s-.06-8.13-.18-8.68a2.6,2.6,0,0,0-1.25-1.56c-.71-.49-1.07-1-1.07-1.4s.31-.77.92-1a15.42,15.42,0,0,1,4.84-.86,1.2,1.2,0,0,1,.89.29,4.39,4.39,0,0,1,.56.71c.18.29.36.43.54.43a2.63,2.63,0,0,0,1-.43,14.59,14.59,0,0,1,1.72-.83,6.68,6.68,0,0,1,2.55-.4h.52a6.13,6.13,0,0,1,2.85.75,7.79,7.79,0,0,1,2.43,2,9.74,9.74,0,0,1,2,6.27,10.64,10.64,0,0,1-2.7,7.54,7.89,7.89,0,0,1-3,2.14,10.53,10.53,0,0,1-3.71.62l-1.49-.16-.84-.1-.39-.06C432.05,510.84,431.75,511.88,431.75,514Zm7.39-12.19,0-1.07a7.26,7.26,0,0,0-1.41-4.42,3.32,3.32,0,0,0-2.81-1.42l-.16,0a3.07,3.07,0,0,0-2.65,1.34,5,5,0,0,0-.61,2.84l0,.37-.06,1.72v1.75l0,.2v.37l0,.2v.39l0,.56,0,.74a3.67,3.67,0,0,0,.9,2.6,3,3,0,0,0,2.32,1h.35a3.7,3.7,0,0,0,3.19-2.13,9.12,9.12,0,0,0,.92-4.59V502Z" transform="translate(105.14)"/><path class="cls-5" d="M461.11,492.6a2.8,2.8,0,0,1,2.18.68,2.51,2.51,0,0,1,.57,1.65,2.9,2.9,0,0,1-.52,1.7,1.42,1.42,0,0,1-1.17.76,4.83,4.83,0,0,1-1.8-.51,4.85,4.85,0,0,0-1.78-.51,2.3,2.3,0,0,0-1.41.66,3.53,3.53,0,0,0-1.08,1.9,17.89,17.89,0,0,0-.3,3.86,9.6,9.6,0,0,0,.37,3.4,9.23,9.23,0,0,0,1.52,2,3.44,3.44,0,0,1,1.15,2.05q0,.93-4.53.93h-2.09c-.27,0-.55,0-.84,0l-.41,0c-.27,0-.56,0-.86,0-1.36,0-2.05-.3-2.05-.88a2.46,2.46,0,0,1,1-1.78,4,4,0,0,0,1.25-1.62,28.45,28.45,0,0,0,.22-5,26.9,26.9,0,0,0-.26-5.08,2.67,2.67,0,0,0-1.27-1.44c-.67-.39-1-.81-1-1.24,0-.59.45-1,1.35-1.27a14.41,14.41,0,0,1,3.67-.54,4.43,4.43,0,0,1,2.21.37,2.31,2.31,0,0,1,.54,1c.2.56.44.84.71.84a2,2,0,0,0,.74-.36A7.26,7.26,0,0,1,461.11,492.6Z" transform="translate(105.14)"/><path class="cls-5" d="M475.66,491.88h1a9.23,9.23,0,0,1,8.37,5.9,10.57,10.57,0,0,1,.67,3.71v.35a10.13,10.13,0,0,1-.82,4,9.17,9.17,0,0,1-2.21,3.25,9.62,9.62,0,0,1-6.64,2.61c-.19,0-.39,0-.59,0a9.53,9.53,0,0,1-3.68-.75,8.36,8.36,0,0,1-3-2,9.84,9.84,0,0,1-2.48-6.86v-.33l0-.33a10.49,10.49,0,0,1,.69-3.59,8.87,8.87,0,0,1,4.72-5A9.23,9.23,0,0,1,475.66,491.88Zm0,2.6h-.37a3.14,3.14,0,0,0-2.75,1.89,9.09,9.09,0,0,0-1.06,4.53V502a9.6,9.6,0,0,0,1.23,5,3.51,3.51,0,0,0,2.95,2.05H476a3.23,3.23,0,0,0,2.63-1.54,6.75,6.75,0,0,0,1.12-4.09l0-.41,0-.82V502l0-.22v-.41c0-.29,0-.49,0-.62a7.8,7.8,0,0,0-1.23-4.44A3.49,3.49,0,0,0,475.64,494.48Z" transform="translate(105.14)"/><path class="cls-5" d="M500.93,492.52c.61,0,.92-.7.92-2.11q0-3.44-1.48-4.74c-.75-.64-1.12-1.06-1.12-1.27,0-.42.61-.82,1.84-1.21a11.11,11.11,0,0,1,3.34-.59,3.78,3.78,0,0,1,2,.33,2.14,2.14,0,0,1,.63,1.45q.17,1.11.16,10.83t.22,11a4.23,4.23,0,0,0,.8,2,5.81,5.81,0,0,0,.74.56c.47.34.7.62.7.84v.34a.89.89,0,0,1-.39.62c-.78.65-2.46,1-5.06,1a1.88,1.88,0,0,1-1.56-.71,6.77,6.77,0,0,0-.58-.7,3.82,3.82,0,0,0-1.27.49,8.3,8.3,0,0,1-3.87,1.13h-.57a6.61,6.61,0,0,1-2.83-.66,7.83,7.83,0,0,1-4.1-4.69,10.43,10.43,0,0,1-.61-3.46v-.62a11.2,11.2,0,0,1,.8-4.22,8.34,8.34,0,0,1,8.36-5.68c1,0,1.6,0,1.78,0l.41,0C500.59,492.5,500.85,492.52,500.93,492.52Zm-2.83,16.27h.33a2.9,2.9,0,0,0,2.64-1.35c.39-.61.59-2,.59-4.12v-2.71A10.54,10.54,0,0,0,501,496a2.79,2.79,0,0,0-2.68-1.24h-.18a3.57,3.57,0,0,0-3,1.85,8,8,0,0,0-1.23,4.54v1.27a7.9,7.9,0,0,0,1,4.1Q496.17,508.79,498.1,508.79Z" transform="translate(105.14)"/><path class="cls-5" d="M533.9,509.73q0,1.57-4.47,1.58a3.17,3.17,0,0,1-1.82-.37,2.93,2.93,0,0,1-.8-1c-.21-.41-.38-.61-.52-.61a4.39,4.39,0,0,0-1.2.63A14.76,14.76,0,0,1,523,511.1a7.53,7.53,0,0,1-2.94.49,5.72,5.72,0,0,1-3.07-.79,5.2,5.2,0,0,1-2-2.26q-.72-1.49-.72-6.7a33.13,33.13,0,0,0-.22-5.7,2.41,2.41,0,0,0-1.26-1c-.69-.31-1-.7-1-1.15,0-.63.39-1,1.17-1.25a17.57,17.57,0,0,1,4.52-.49,1.6,1.6,0,0,1,1.68,1.11,27.31,27.31,0,0,1,.39,6.21,36.39,36.39,0,0,0,.33,6.43,2.66,2.66,0,0,0,2,2.19,3.57,3.57,0,0,0,.8.09,4.26,4.26,0,0,0,1.45-.27,3.72,3.72,0,0,0,1.82-1.28c.41-.57.62-2,.62-4.36a24.36,24.36,0,0,0-.35-5,7.8,7.8,0,0,0-1-2.42,3.17,3.17,0,0,1-.64-1.38q0-1.36,5-1.37h.54a1.82,1.82,0,0,1,1.38.4,3.57,3.57,0,0,1,.36,2l-.08,2.83,0,.59V501a33.1,33.1,0,0,0,.24,5.31,5.65,5.65,0,0,0,1.08,2.13A5.5,5.5,0,0,1,533.9,509.73Z" transform="translate(105.14)"/><path class="cls-5" d="M537.28,495c-.57-.39-.86-.77-.86-1.14s.35-.74,1-1.1a4.55,4.55,0,0,0,1.29-.88,10.49,10.49,0,0,0,.81-1.84,8.78,8.78,0,0,1,1.18-2.31,2,2,0,0,1,1.64-.81,1.54,1.54,0,0,1,1.46.82,9,9,0,0,1,.52,1.76,3.58,3.58,0,0,0,.77,1.77,6.14,6.14,0,0,0,1.72.87l1.31.5a1.56,1.56,0,0,1,.66,1.25c0,.42-.61.79-1.84,1.11a3.52,3.52,0,0,0-2.37,1.49q-.51,1-.51,5c0,2.65.2,4.38.61,5.17a2.11,2.11,0,0,0,2,1.2l.71-.06c.31,0,.65,0,1,0,.8,0,1.19.3,1.19.9a2.07,2.07,0,0,1-1.44,1.83,10.16,10.16,0,0,1-4.38,1,4.5,4.5,0,0,1-2.15-.59,4.61,4.61,0,0,1-1.64-1.42,8.36,8.36,0,0,1-1.11-4.69l0-.41c0-.29,0-.61,0-1v-1.15a25.8,25.8,0,0,0-.55-5.76A2.38,2.38,0,0,0,537.28,495Z" transform="translate(105.14)"/><path class="cls-5" d="M561.91,491.88h1a9.23,9.23,0,0,1,8.37,5.9,10.57,10.57,0,0,1,.67,3.71v.35a10.13,10.13,0,0,1-.82,4,9.17,9.17,0,0,1-2.21,3.25,9.62,9.62,0,0,1-6.64,2.61c-.19,0-.39,0-.59,0a9.53,9.53,0,0,1-3.68-.75,8.36,8.36,0,0,1-3-2,9.84,9.84,0,0,1-2.48-6.86v-.33l0-.33a10.49,10.49,0,0,1,.69-3.59,8.87,8.87,0,0,1,4.72-5A9.23,9.23,0,0,1,561.91,491.88Zm0,2.6h-.37a3.14,3.14,0,0,0-2.75,1.89,9.09,9.09,0,0,0-1.06,4.53V502a9.6,9.6,0,0,0,1.23,5,3.51,3.51,0,0,0,2.95,2.05h.37a3.23,3.23,0,0,0,2.63-1.54,6.75,6.75,0,0,0,1.12-4.09l0-.41,0-.82V502l0-.22v-.41c0-.29,0-.49,0-.62a7.8,7.8,0,0,0-1.23-4.44A3.49,3.49,0,0,0,561.89,494.48Z" transform="translate(105.14)"/><path class="cls-5" d="M588,492.6a2.78,2.78,0,0,1,2.18.68,2.52,2.52,0,0,1,.58,1.65,3,3,0,0,1-.52,1.7,1.45,1.45,0,0,1-1.17.76,4.87,4.87,0,0,1-1.81-.51,4.85,4.85,0,0,0-1.78-.51,2.3,2.3,0,0,0-1.4.66,3.54,3.54,0,0,0-1.09,1.9,17.89,17.89,0,0,0-.3,3.86,9.6,9.6,0,0,0,.37,3.4,9.94,9.94,0,0,0,1.52,2,3.47,3.47,0,0,1,1.16,2.05q0,.93-4.53.93h-2.09c-.28,0-.56,0-.84,0l-.41,0c-.28,0-.56,0-.86,0-1.37,0-2-.3-2-.88a2.47,2.47,0,0,1,1-1.78,4,4,0,0,0,1.25-1.62,27.94,27.94,0,0,0,.23-5,25.62,25.62,0,0,0-.27-5.08,2.63,2.63,0,0,0-1.27-1.44c-.67-.39-1-.81-1-1.24,0-.59.45-1,1.34-1.27a14.48,14.48,0,0,1,3.68-.54,4.38,4.38,0,0,1,2.2.37,2.2,2.2,0,0,1,.54,1c.2.56.44.84.71.84a2,2,0,0,0,.75-.36A7.23,7.23,0,0,1,588,492.6Z" transform="translate(105.14)"/><path class="cls-5" d="M598.65,503.85a4.2,4.2,0,0,0,1.83,3.38A5.43,5.43,0,0,0,604,508.3a11.4,11.4,0,0,0,2.84-.54,14.61,14.61,0,0,1,2.18-.55c.59,0,.88.32.88,1s-.78,1.52-2.34,2.29a10.6,10.6,0,0,1-4.83,1.16h-1a8.75,8.75,0,0,1-3.22-.64,7.93,7.93,0,0,1-4.61-4.38,10.29,10.29,0,0,1-.94-4.08v-.9a10.7,10.7,0,0,1,.69-3.8,8.54,8.54,0,0,1,4.55-5,9.68,9.68,0,0,1,4.1-.9h.45a7.71,7.71,0,0,1,5.37,2,7,7,0,0,1,1.77,2.54,7.8,7.8,0,0,1,.61,3,2,2,0,0,1-1.5,2,29.81,29.81,0,0,1-7.81.68,3.69,3.69,0,0,0-2,.38A1.53,1.53,0,0,0,598.65,503.85Zm3.81-9.3h-.57a3.16,3.16,0,0,0-2.35,1.28,4.51,4.51,0,0,0-1.13,3.06v.31c0,.48.27.73.8.73l.2,0h1.39l.09,0,3.27-.19a2.31,2.31,0,0,1,.39-.06c.66,0,1-.34,1-1V498a3.5,3.5,0,0,0-.94-2.38A2.78,2.78,0,0,0,602.46,494.55Z" transform="translate(105.14)"/><path class="cls-5" d="M627.57,495a6.3,6.3,0,0,1-.23,2.17.91.91,0,0,1-.92.53c-.73,0-1.51-.53-2.35-1.58a3.88,3.88,0,0,0-3.18-1.58,2.49,2.49,0,0,0-1.73.56,1.67,1.67,0,0,0-.65,1.25,2.34,2.34,0,0,0,1.13,2,33.89,33.89,0,0,0,3.51,1.61,13,13,0,0,1,4.24,2.56,4.92,4.92,0,0,1,1.28,3.58,5.08,5.08,0,0,1-1.94,3.94,7.29,7.29,0,0,1-5,1.68h-1a14,14,0,0,1-5.69-.89q-1.32-.63-1.32-3c0-1.57.29-2.35.87-2.35.75,0,1.67.61,2.77,1.82a4.81,4.81,0,0,0,3.58,1.82,3.73,3.73,0,0,0,2-.5,1.7,1.7,0,0,0,.82-1.56,2.38,2.38,0,0,0-1.14-1.91,21.21,21.21,0,0,0-3.27-1.59,13.23,13.23,0,0,1-3.8-2.22,5.19,5.19,0,0,1-1.7-3.93,4.71,4.71,0,0,1,2-3.87,7.43,7.43,0,0,1,4.65-1.53H621c2.79,0,4.68.28,5.68.86C627.28,493.15,627.57,493.87,627.57,495Z" transform="translate(105.14)"/><path class="cls-5" d="M636.67,505.84H637a3.2,3.2,0,0,1,2.12.81,2.57,2.57,0,0,1,.94,2V509a2.69,2.69,0,0,0,0,.29,2.49,2.49,0,0,1-.86,1.67,2.64,2.64,0,0,1-1.89.87l-.19,0h-.53a1.37,1.37,0,0,0-.29,0,2.57,2.57,0,0,1-1.82-.86,2.81,2.81,0,0,1-.86-2.05v-.12l0-.1a2.75,2.75,0,0,1,.9-2A3,3,0,0,1,636.67,505.84Zm-2.85-20.6q0-2.07,3.54-2.07l.23,0a2.06,2.06,0,0,1,1.63.55,2.68,2.68,0,0,1,.48,1.77v.92l0,.21,0,.47c0,.16,0,.31,0,.45l0,.47q0,.47,0,1.56c0,.73-.13,2.14-.38,4.22s-.44,3.93-.57,5.54a31,31,0,0,1-.38,3.17c-.12.51-.62.76-1.51.76h-.25c-.69,0-1.09-.46-1.21-1.38a152.89,152.89,0,0,1-1.45-15.78Z" transform="translate(105.14)"/><g class="cls-6"><path class="cls-7" d="M-95.34,1098.11C-2,987.28,154.12,933.29,296,962.74c27.29,5.66,54.8,14.2,82.46,10.84,42-5.11,75.36-36.12,111-59,86.63-55.79,201.16-65.52,296-25.15,56.83,24.21,107,65.12,167.39,78.18,43.75,9.46,89.2,3.42,133.93,5.25,83.46,3.42,164,34.55,235.17,78.3s133.82,99.87,194.4,157.38L-95.5,1209Z" transform="translate(105.14)"/><path class="cls-8" d="M1650,1134.78c-62.48-58.25-127.28-115.19-201.92-156.7s-160.55-67-245.48-57.89c-111.16,11.9-213.25,81.35-324.93,76.15-52.3-2.43-102.27-21.26-151.21-39.86L517.69,877.09c-28.83-11-58.06-22-88.73-25.22-46-4.79-91.93,8.38-138.16,9.71-68.94,2-135.65-22.26-203.85-32.5s-146.48-2.68-192.09,49L-105,1135Z" transform="translate(105.14)"/></g></g></g></svg>