<svg width="882" height="1080" viewBox="0 0 882 1080" fill="none" xmlns="http://www.w3.org/2000/svg">
<path d="M882 0H0V1080H882V0Z" fill="#FAFAFA"/>
<path d="M368.6 710.3C386.9 693.9 402.1 673.8 412.9 651.7C416.1 645.1 418.9 638.4 421.4 631.5C422.7 627.8 419.9 623.1 416.2 622.3C412 621.3 408.4 623.6 407 627.5C405.9 630.6 404.7 633.7 403.4 636.8C403.7 636.2 403.9 635.6 404.2 635C400.1 644.8 395.1 654.2 389.4 663.1C386.5 667.6 383.5 672 380.2 676.2C380.3 676.1 381.4 674.7 380.6 675.7C380.4 675.9 380.3 676.1 380.1 676.4C379.7 676.9 379.2 677.5 378.8 678C377.9 679.1 377 680.1 376.2 681.2C374.5 683.2 372.8 685.2 371 687.1C367 691.5 362.7 695.7 358.3 699.7C355.4 702.3 355.4 707.7 358.3 710.3C361.1 713.1 365.4 713.1 368.6 710.3Z" fill="#182C2D"/>
<path d="M181.6 804.3C186.7 794.1 192.5 784.2 199.1 774.9C200.7 772.6 202.5 770.4 204.1 768.1C202.6 770.1 204.2 768 204.5 767.6C204.9 767 205.4 766.5 205.8 765.9C206.7 764.8 207.6 763.7 208.5 762.6C212.1 758.3 215.9 754.1 219.9 750.1C224.4 745.5 229.2 741 234.1 736.8C237.1 734.2 236.9 728.8 234.1 726.2C230.9 723.3 226.7 723.5 223.5 726.2C205.7 741.4 190.2 759.6 178 779.6C174.6 785.1 171.5 790.8 168.6 796.6C167.7 798.4 167.3 800.4 167.8 802.4C168.3 804.1 169.6 806 171.2 806.9C174.8 808.8 179.8 808 181.6 804.3Z" fill="#182C2D"/>
<path d="M273.4 740.3C269.9 738.5 265.1 739.3 263.1 743C256.1 756 251.1 770.2 248.6 784.8C246 800.6 246 816.7 245.6 832.7C245.5 837.3 245.4 841.9 245.3 846.5C244.9 846.4 244.5 846.2 244.1 846.1C240.4 844.9 235.8 847.5 234.9 851.3C234 855.4 236.1 859.3 240.1 860.5C240.6 860.7 241.1 860.9 241.6 861C242.7 861.5 243.8 862.1 244.8 862.8C245 863 245.2 863.1 245.5 863.3C246.1 863.8 246.7 864.4 247.3 864.9C249.4 867 252.7 867.6 255.5 866.5C258.3 865.3 260 862.7 260.1 859.6C260.3 850.6 260.5 841.6 260.7 832.6C260.9 823.8 261 814.9 261.5 806.1C261.7 801.4 262.1 796.8 262.7 792.1C264.2 781.2 267.1 770.6 271.3 760.5C272.8 757.1 274.4 753.8 276.2 750.5C278 747.1 277.1 742.2 273.4 740.3Z" fill="#182C2D"/>
<path d="M351.9 846.3C350.7 842.5 346.7 839.8 342.7 841.1C342.3 841.2 341.9 841.4 341.5 841.5C341.3 830.2 341.1 818.8 340.7 807.5C340.2 792.1 338.6 776.6 333.8 761.8C331.2 753.6 327.8 745.6 323.7 738C321.8 734.5 316.8 733.2 313.4 735.3C309.9 737.6 308.7 741.9 310.7 745.6C312.5 748.9 314.1 752.2 315.6 755.6C319.8 765.8 322.7 776.4 324.2 787.2C325.2 795.5 325.6 803.9 325.8 812.3C326 821.2 326.2 830.2 326.4 839.1C326.5 844.3 326.6 849.4 326.7 854.6C326.8 857.6 328.5 860.3 331.3 861.5C334 862.7 337.4 862.1 339.5 859.9C340.1 859.3 340.6 858.8 341.2 858.3C341.4 858.1 341.7 858 341.9 857.8C342.9 857.1 344 856.6 345.1 856C345.6 855.8 346.1 855.6 346.6 855.5C350.4 854.4 353.2 850.2 351.9 846.3Z" fill="#182C2D"/>
<path d="M263.2 650.7C281.8 643.4 303.6 641 323.2 646.2C342.8 651.4 359.2 664.1 367.7 679.8C376.1 695.5 376.6 714 369.7 730.2C360.5 751.6 338.2 768.6 311.9 774.3C285.6 780 256.3 774.2 235.9 759.2C229.9 754.8 224.5 749.6 221 743.5C215 733.1 214.6 721.1 214.7 709.5C214.7 699.6 215.8 688.6 221.5 680.4C231.3 666.4 246.1 657.4 263.2 650.7Z" fill="#EDBC20"/>
<path d="M338.6 625.1C337.4 621.4 333.4 618.5 329.4 619.9C318.9 623.5 308.4 627.2 298 631.1C298.1 630.6 298.2 630.1 298.3 629.6C299.6 623.2 300.7 616.9 301.7 610.4C302 608.3 302 606.5 300.9 604.6C300 603 298.2 601.6 296.4 601.2C294.5 600.8 292.3 600.9 290.6 602C289.1 603 287.4 604.6 287.2 606.5C285.9 614.7 284.4 622.9 282.7 631.1C280.2 629.3 277.6 627.6 275 626C271.1 623.6 267.1 621.5 262.9 619.6C261 618.7 259.2 618.3 257.1 618.8C255.4 619.3 253.5 620.6 252.6 622.2C250.9 625.5 251.5 630.7 255.3 632.5C260.9 635 266.3 638 271.4 641.5C265.4 643.9 259.5 646.4 253.6 648.9C246.7 651.8 239.8 654.8 233 657.9C231.4 658.6 230 660.8 229.6 662.4C229.1 664.2 229.3 666.6 230.4 668.2C231.4 669.8 233 671.2 234.9 671.6C237 672.1 238.7 671.7 240.7 670.8C247.7 667.6 254.8 664.6 261.9 661.6C266.8 659.5 271.8 657.5 276.7 655.5C275 661.5 273.2 667.5 271.3 673.4C269.3 679.6 267.1 685.7 264.9 691.8C264.3 693.5 264.8 696 265.7 697.6C266.6 699.2 268.4 700.6 270.2 701C272.1 701.4 274.3 701.3 276 700.2C277.7 699.1 278.7 697.6 279.4 695.7C284 683.6 288 671.3 291.4 658.8C291.7 659.1 291.9 659.3 292.2 659.6C295.5 662.9 298.8 666.2 302.3 669.2C303.8 670.5 305.5 671.4 307.6 671.4C309.4 671.4 311.6 670.6 312.9 669.2C315.5 666.4 316.1 661.3 312.9 658.6C308.4 654.8 304.4 650.5 300.2 646.3C305.9 644.2 311.5 642.1 317.2 640C322.6 638.1 328 636.2 333.4 634.4C337.1 633.1 339.9 629.2 338.6 625.1Z" fill="#182C2D"/>
<path d="M266.2 723.1C266.2 722.7 266.2 722.2 266.2 721.8C266.2 720.8 266 719.8 265.6 718.9C265.3 718 264.8 717.2 264 716.5C263.3 715.8 262.5 715.3 261.6 714.9C260.7 714.4 259.7 714.2 258.7 714.3C258 714.4 257.4 714.5 256.7 714.6C255.4 715 254.3 715.6 253.4 716.5C253 717 252.6 717.5 252.2 718C251.5 719.2 251.2 720.4 251.2 721.8C251.2 722.2 251.2 722.7 251.2 723.1C251.2 724.1 251.4 725.1 251.8 726C252.1 726.9 252.6 727.7 253.4 728.4C254.1 729.1 254.9 729.6 255.8 730C256.7 730.5 257.7 730.7 258.7 730.6C259.4 730.5 260 730.4 260.7 730.3C262 729.9 263.1 729.3 264 728.4C264.4 727.9 264.8 727.4 265.2 726.9C265.9 725.7 266.2 724.5 266.2 723.1Z" fill="#182C2D"/>
<path d="M330.8 723.9C334.7 723.9 338.5 720.5 338.3 716.4C338.1 712.3 335 708.9 330.8 708.9C326.9 708.9 323.1 712.3 323.3 716.4C323.5 720.5 326.6 723.9 330.8 723.9Z" fill="#182C2D"/>
<path d="M288.5 752.4C297.5 755.3 307.5 753 314.5 746.9C316.3 745.4 316.2 742.1 314.5 740.5C312.6 738.7 310 738.9 308.1 740.5C307.9 740.6 307.8 740.8 307.6 740.9C307.1 741.4 307.7 740.9 307.7 740.8C307.7 740.9 306.7 741.5 306.6 741.6C305.9 742.1 305.1 742.5 304.3 742.9C304.1 743 303.9 743.1 303.7 743.2C303 743.5 303.9 743.1 303.9 743.1C303.9 743.1 302.8 743.5 302.6 743.6C301.7 743.9 300.8 744.1 299.9 744.3C299.7 744.3 299.5 744.4 299.2 744.4C299.1 744.4 298.3 744.5 299 744.4C299.7 744.3 298.9 744.4 298.8 744.4C298.6 744.4 298.4 744.4 298.1 744.5C297.2 744.6 296.3 744.6 295.4 744.5C295 744.5 294.5 744.4 294.1 744.4C293.5 744.3 294.9 744.6 294.3 744.4C294.1 744.4 293.9 744.3 293.6 744.3C292.7 744.1 291.8 743.9 290.9 743.6C288.7 742.9 285.9 744.5 285.4 746.7C284.8 749.3 286.1 751.6 288.5 752.4Z" fill="#182C2D"/>
<path d="M256.9 439.5C256.9 440.4 256.8 440.9 256.5 441.2C256.3 441.5 255.9 441.6 255.4 441.6L255 441.4L254.6 441.1L254.1 440.8C253.6 440.5 252.8 440.2 251.5 439.7C250.2 439.2 249 439 247.9 439C246.8 439 246 439.4 245.4 440.2C244.9 441 244.6 442.7 244.6 445.2C244.6 445.9 244.8 446.5 245.3 446.9C245.7 447.3 246.4 447.5 247.1 447.5C247.8 447.5 248.7 447.2 249.7 446.7C250.6 446.2 251.3 445.9 251.7 445.9C252.1 445.9 252.4 446.2 252.7 446.7C253 447.2 253.1 447.9 253.1 448.6C253.1 450.6 252.9 451.8 252.5 452.2L252 452.5C251.2 452.5 250.6 452.3 250.2 452C249.2 451.2 248.5 450.8 248 450.8C246.5 450.8 245.5 451.1 245 451.7C244.8 452 244.6 453.1 244.6 454.9C244.6 456.7 245 458.1 245.7 459.1C246.1 459.6 246.9 459.9 248.3 459.9C249.7 459.9 251.3 459.4 253.4 458.5C255.5 457.6 256.6 457.1 256.9 457.1C257.5 457.1 257.7 457.6 257.7 458.7V459.4C257.7 459.8 257.6 460.3 257.3 460.9C257 461.6 256.6 462.1 256.1 462.4C255.6 462.8 254.7 462.9 253.4 462.9H239.2C237 462.9 236 462.6 236 462.1V461.5C236 461.1 236.4 460.6 237.2 460.2C238 459.8 238.5 459.3 238.6 458.8C238.7 458.3 238.8 455.3 238.8 449.8C238.8 444.3 238.7 441.2 238.5 440.5C238.3 439.8 237.9 439.1 237.1 438.5C236.4 437.9 236 437.3 236 436.7C236 436.3 236.5 436 237.4 436C238.3 436 241.4 435.9 246.6 435.9H251.7H252.5C253.8 435.9 254.7 436.1 255.3 436.5C256.4 437.3 256.9 438.2 256.9 439.5Z" fill="#49B577"/>
<path d="M283.4 461.8C283.4 462.3 283 462.6 282.2 462.9C281.4 463.1 280.1 463.2 278.2 463.2C276.3 463.2 275.2 463.1 274.9 462.8C274.5 462.5 274.4 462.2 274.4 461.9C274.4 461.5 274.6 461 274.9 460.3C275.2 459.6 275.4 459 275.5 458.5C275.6 458.1 275.6 456.6 275.6 454C275.6 451.4 275.4 449.7 274.9 448.8C274.5 447.9 273.6 447.4 272.3 447.4C271 447.4 270 448 269.2 449.1C268.7 449.8 268.4 451.2 268.4 453.2C268.4 456.5 268.7 458.9 269.3 460.4C269.7 461.3 269.8 461.9 269.8 462.1C269.8 462.6 269.5 462.9 268.9 463C268.3 463.1 267 463.2 265 463.2C263 463.2 261.8 463.1 261.4 462.8C261 462.5 260.8 462.2 260.8 461.7C260.8 461.2 261.1 460.8 261.8 460.3C262.5 459.8 262.9 459.4 263 459.1C263.1 458.7 263.1 457.1 263.1 454.1C263.1 451.2 263 449.4 262.8 448.9C262.6 448.4 262.2 447.8 261.6 447.2C261 446.6 260.7 446.2 260.7 446.2V445.8C260.7 445.6 260.9 445.4 261.2 445.2C262.3 444.5 264 444.2 266.3 444.2C266.9 444.2 267.4 444.5 267.9 445.1C268.3 445.7 268.6 446 268.8 446C269 446 269.5 445.8 270.2 445.4C270.9 445 271.3 444.8 271.4 444.7C272.4 444.2 273.4 444 274.3 444H274.9C277.2 444 278.8 444.9 279.8 446.7C280.4 447.9 280.7 450.7 280.7 455.2C280.7 457.6 280.8 459 280.9 459.3C281.1 459.6 281.5 460 282.2 460.5C283 461 283.4 461.4 283.4 461.8Z" fill="#49B577"/>
<path d="M286.3 447C285.7 446.6 285.4 446.2 285.4 445.9C285.4 445.6 285.7 445.2 286.4 444.8C287.1 444.4 287.5 444.1 287.7 443.9C287.9 443.7 288.1 443.1 288.5 442.1C288.9 441.1 289.3 440.3 289.7 439.8C290.1 439.3 290.7 439 291.3 439C292 439 292.5 439.3 292.8 439.8C292.9 440 293.1 440.6 293.3 441.6C293.5 442.5 293.8 443.1 294.1 443.4C294.4 443.7 295 444 295.8 444.3C296.6 444.6 297.1 444.8 297.1 444.8C297.5 445.2 297.8 445.6 297.8 446C297.8 446.4 297.2 446.8 296 447.1C294.8 447.4 294 447.9 293.6 448.6C293.3 449.3 293.1 450.9 293.1 453.6C293.1 456.3 293.3 458 293.7 458.8C294.1 459.6 294.8 460 295.7 460L296.4 459.9C296.7 459.9 297.1 459.9 297.4 459.9C298.2 459.9 298.6 460.2 298.6 460.8C298.6 461.6 298.1 462.2 297.2 462.6C295.8 463.3 294.4 463.6 292.8 463.6C292.1 463.6 291.4 463.4 290.7 463C290 462.6 289.4 462.1 289.1 461.6C288.4 460.5 288 458.9 288 456.9V456.5C288 456.2 288 455.9 288 455.5V454.3C288 452 287.8 450.1 287.5 448.5C287.2 447.9 286.9 447.4 286.3 447Z" fill="#49B577"/>
<path d="M314.6 444.6C315.7 444.6 316.4 444.8 316.8 445.3C317.2 445.8 317.4 446.3 317.4 446.9C317.4 447.5 317.2 448.1 316.9 448.6C316.6 449.1 316.2 449.4 315.7 449.4C315.3 449.4 314.7 449.2 313.9 448.9C313.1 448.6 312.5 448.4 312.1 448.4C311.7 448.4 311.2 448.6 310.7 449.1C310.2 449.5 309.8 450.2 309.6 451C309.4 451.8 309.3 453.1 309.3 454.9C309.3 456.7 309.4 457.8 309.7 458.3C309.9 458.8 310.5 459.5 311.2 460.3C312 461.1 312.4 461.8 312.4 462.4C312.4 463 310.9 463.3 307.9 463.3H306.2H305.8C305.5 463.3 305.2 463.3 305 463.3H304.6C304.3 463.3 304 463.3 303.7 463.3C302.3 463.3 301.6 463 301.6 462.4C301.6 461.8 301.9 461.2 302.6 460.6C303.3 460 303.7 459.5 303.8 459C303.9 458.5 304 456.9 304 454C304 451.2 303.9 449.5 303.7 448.9C303.5 448.3 303.1 447.9 302.4 447.5C301.7 447.1 301.4 446.7 301.4 446.3C301.4 445.7 301.8 445.3 302.7 445C304.1 444.6 305.3 444.5 306.4 444.5C307.5 444.5 308.2 444.6 308.6 444.9C308.8 445 308.9 445.3 309.1 445.9C309.3 446.5 309.5 446.7 309.8 446.7C309.9 446.7 310.2 446.6 310.5 446.3C312.3 445.1 313.6 444.6 314.6 444.6Z" fill="#49B577"/>
<path d="M325.2 455.9C325.2 457.2 325.8 458.3 327 459.3C327.9 460 329.1 460.4 330.5 460.4C331.1 460.4 332.1 460.2 333.3 459.9C334.6 459.5 335.3 459.4 335.5 459.4C336.1 459.4 336.4 459.7 336.4 460.4C336.4 461.2 335.6 461.9 334.1 462.7C332.5 463.5 330.9 463.9 329.3 463.9H328.4H328.3C327.2 463.9 326.2 463.7 325.1 463.3C322.9 462.5 321.4 461 320.5 458.9C319.9 457.5 319.6 456.1 319.6 454.8V453.9C319.6 452.6 319.8 451.3 320.3 450.1C321.2 447.8 322.7 446.1 324.9 445.1C326.2 444.5 327.6 444.2 329 444.2H329.4C331.5 444.2 333.3 444.9 334.8 446.2C335.6 446.9 336.2 447.7 336.6 448.7C337 449.7 337.2 450.7 337.2 451.7C337.2 452.7 336.7 453.4 335.7 453.7C334.3 454.2 331.7 454.4 327.9 454.4C326.9 454.4 326.2 454.5 325.9 454.8C325.4 454.8 325.2 455.2 325.2 455.9ZM329.1 446.6H328.5C327.7 446.6 326.9 447 326.1 447.9C325.4 448.8 325 449.8 325 451V451.3C325 451.8 325.3 452 325.8 452H326H327.4H327.5L330.8 451.8C331 451.8 331.1 451.7 331.2 451.7C331.9 451.7 332.2 451.4 332.2 450.7V450C332.2 449.1 331.9 448.3 331.3 447.6C330.6 446.9 329.9 446.6 329.1 446.6Z" fill="#49B577"/>
<path d="M355.9 455.9C355.9 457.2 356.5 458.3 357.7 459.3C358.6 460 359.8 460.4 361.2 460.4C361.8 460.4 362.8 460.2 364 459.9C365.3 459.5 366 459.4 366.2 459.4C366.8 459.4 367.1 459.7 367.1 460.4C367.1 461.2 366.3 461.9 364.8 462.7C363.2 463.5 361.6 463.9 360 463.9H359.1H359C357.9 463.9 356.9 463.7 355.8 463.3C353.6 462.5 352.1 461 351.2 458.9C350.6 457.5 350.3 456.1 350.3 454.8V453.9C350.3 452.6 350.5 451.3 351 450.1C351.9 447.8 353.4 446.1 355.6 445.1C356.9 444.5 358.3 444.2 359.7 444.2H360.1C362.2 444.2 364 444.9 365.5 446.2C366.3 446.9 366.9 447.7 367.3 448.7C367.7 449.7 367.9 450.7 367.9 451.7C367.9 452.7 367.4 453.4 366.4 453.7C365 454.2 362.4 454.4 358.6 454.4C357.6 454.4 356.9 454.5 356.6 454.8C356.1 454.8 355.9 455.2 355.9 455.9ZM359.7 446.6H359.1C358.3 446.6 357.5 447 356.7 447.9C356 448.8 355.6 449.8 355.6 451V451.3C355.6 451.8 355.9 452 356.4 452H356.6H358H358.1L361.4 451.8C361.6 451.8 361.7 451.7 361.8 451.7C362.5 451.7 362.8 451.4 362.8 450.7V450C362.8 449.1 362.5 448.3 361.9 447.6C361.2 446.9 360.5 446.6 359.7 446.6Z" fill="#49B577"/>
<path d="M396.8 459.1C397.3 459.1 397.6 459.4 397.6 460.1C397.6 460.8 396.8 461.6 395.1 462.4C393.4 463.2 391.9 463.6 390.3 463.6H389.9C388.6 463.6 387.4 463.3 386.2 462.8C383.9 461.8 382.4 460.1 381.5 457.7C381.1 456.5 380.9 455.4 380.9 454.2V453.7C380.9 451.1 381.8 448.8 383.5 446.9C384.4 445.9 385.4 445.2 386.7 444.7C387.9 444.2 389.2 443.9 390.5 443.9C393 443.9 394.9 444.3 396.2 445C397 445.4 397.4 446.2 397.4 447.2C397.4 449 396.8 449.9 395.7 449.9C395 449.9 394.2 449.4 393.2 448.4C392.2 447.4 391.2 446.9 390.2 446.9C388.9 446.9 387.8 447.7 387 449.3C386.5 450.2 386.3 451.7 386.3 453.6V453.7C386.3 455.6 386.8 457.1 387.8 458.4C388.8 459.6 390 460.3 391.6 460.3C392.4 460.3 393.5 460.1 394.7 459.7C395.9 459.3 396.6 459.1 396.8 459.1Z" fill="#49B577"/>
<path d="M409.9 443.9H410.9C412.1 443.9 413.3 444.2 414.5 444.7C416.8 445.7 418.4 447.4 419.3 449.8C419.7 451 420 452.2 420 453.5V453.9C420 455.3 419.7 456.6 419.2 457.9C418.7 459.2 417.9 460.3 417 461.1C415.1 462.8 412.9 463.7 410.4 463.7C410.2 463.7 410 463.7 409.8 463.7C408.6 463.7 407.3 463.4 406.1 462.9C404.9 462.4 403.9 461.7 403.1 460.9C401.4 459.1 400.6 456.8 400.6 454V453.7V453.4C400.6 452.2 400.8 451 401.3 449.8C402.2 447.5 403.7 445.9 406 444.8C407.3 444.2 408.6 443.9 409.9 443.9ZM409.9 446.5H409.5C408.4 446.5 407.5 447.1 406.8 448.4C406.1 449.7 405.7 451.2 405.7 452.9V454C405.7 456 406.1 457.7 406.9 459C407.7 460.3 408.7 461.1 409.8 461.1H410.2C411.2 461.1 412.1 460.6 412.8 459.6C413.5 458.6 413.9 457.2 413.9 455.5V455.1V454.3V454V453.8V453.4C413.9 453.1 413.9 452.9 413.9 452.8C413.9 451.1 413.5 449.6 412.7 448.4C412 447.1 411 446.5 409.9 446.5Z" fill="#49B577"/>
<path d="M422.7 436.1C422.7 435.6 423 435.3 423.7 435.1C425.5 434.5 427.3 434.3 429 434.3C430 434.3 430.5 434.7 430.6 435.6C430.6 435.8 430.6 439.3 430.6 446.1C430.6 452.9 430.7 456.9 430.9 458.1C431.1 459.3 431.4 460.2 431.8 460.6C432.8 461.7 433.3 462.3 433.3 462.4C433.3 463 431.6 463.3 428.1 463.3H427.7H427.3C425.2 463.3 424 463.2 423.6 463.1C423.2 463 423 462.8 423 462.4C423 462 423.3 461.4 424 460.6C424.6 459.8 425 459 425.2 458.1C425.4 457.2 425.5 454 425.5 448.3C425.5 442.6 425.4 439.6 425.2 438.9C425 438.3 424.6 437.7 423.8 437.3C423.1 436.8 422.7 436.4 422.7 436.1Z" fill="#49B577"/>
<path d="M455.3 461.4V461.7C455.3 462.1 454.8 462.6 453.8 462.9C452.8 463.2 451.7 463.5 450.3 463.5C449.5 463.5 448.8 463.1 448.2 462.4C447.9 462 447.6 461.8 447.4 461.8C447.2 461.8 446.9 461.9 446.5 462.2C445 463.2 443.4 463.7 441.7 463.7C440 463.7 438.7 463.3 437.6 462.4C436.5 461.5 436.1 460.3 436.1 458.7C436.1 455.3 438.7 453.2 443.9 452.3C445.1 452.1 445.9 452 446.1 451.9C446.9 451.6 447.2 450.9 447.2 449.8C447.2 448.7 447 447.9 446.5 447.5C446 447 445.4 446.8 444.8 446.8C443.8 446.8 442.8 447.4 442 448.5C441.2 449.6 440.2 450.2 439.1 450.2C438.4 450.2 438 450 437.6 449.7C437.3 449.3 437.1 449 437.1 448.6C437.1 447.5 437.7 446.5 438.9 445.9C440.9 444.8 443 444.2 445.2 444.2H446.2C447.3 444.2 448.4 444.4 449.4 444.9C450.4 445.4 451.2 446.1 451.8 447.1C452.4 448.1 452.6 450.3 452.6 453.6C452.6 457 452.7 458.9 452.9 459.4C453.1 459.9 453.5 460.3 454.2 460.5C455 460.7 455.3 461 455.3 461.4ZM447.4 455.2C447.4 454.6 447.2 454.3 446.9 454.3H446.4C446.1 454.4 445.8 454.4 445.7 454.4C444.5 454.4 443.5 454.7 442.7 455.4C441.9 456.1 441.5 456.9 441.5 457.7V458.1C441.5 458.8 441.7 459.3 442.1 459.8C442.5 460.3 443 460.5 443.6 460.5H444.2C445.1 460.5 445.8 460.2 446.4 459.7C447 459.2 447.3 458.6 447.3 458.1C447.4 457.8 447.4 457.7 447.4 457.6V457.3V456.5V456.2V455.3C447.4 455.4 447.4 455.3 447.4 455.2Z" fill="#49B577"/>
<path d="M461.3 463.1C460.3 463.1 459.7 462.9 459.4 462.6C459.1 462.3 458.9 461.9 458.9 461.4C458.9 460.9 459 459.9 459.3 458.4C459.5 456.8 459.7 455.8 459.7 455.2V454.7V452.8V451.8V448.4C459.7 443.4 459.6 440.5 459.5 439.7C459.4 439 459.1 438.4 458.5 438C457.6 437.3 457.2 436.8 457.2 436.6C457.2 436.1 457.7 435.6 458.7 435.4C460.2 435 461.4 434.8 462.4 434.8H462.8C463.8 434.8 464.3 435.2 464.5 436C464.6 436.5 464.7 438 464.7 440.6C464.7 443.1 464.7 444.5 464.8 444.8C464.9 445.3 465.2 445.5 465.8 445.5L466.3 445.3C467.8 444.8 469.2 444.5 470.3 444.5C472.7 444.5 474.5 445.4 475.9 447.1C477.3 448.9 478 451 478 453.5V454C478 455.3 477.7 456.6 477.2 457.9C476.1 460.4 474.5 462.1 472.2 463C471 463.5 469.8 463.7 468.6 463.7H468.1C467.7 463.7 467.1 463.6 466.3 463.4C465.5 463.2 464.7 463.1 463.8 463.1H463.4C463 463.1 462.7 463 462.5 463H462.1C461.8 463 461.5 463.1 461.3 463.1ZM464.8 457.6C464.8 458.7 465.1 459.6 465.6 460.2C466.1 460.8 466.9 461.1 467.8 461.1H468.7C469.7 461.1 470.6 460.5 471.4 459.3C472.2 458.1 472.5 456.6 472.5 454.8V453.5C472.5 451.5 472.1 449.9 471.3 448.8C470.5 447.6 469.5 447 468.4 447H468C466.7 447 465.8 447.4 465.3 448.3C464.8 449.2 464.6 451 464.6 453.8V454.2V454.4V455.4V455.6C464.6 455.7 464.6 455.9 464.6 456L464.7 457.3C464.8 457.3 464.8 457.4 464.8 457.6Z" fill="#49B577"/>
<path d="M490.8 443.9H491.8C493 443.9 494.2 444.2 495.4 444.7C497.7 445.7 499.3 447.4 500.2 449.8C500.6 451 500.9 452.2 500.9 453.5V453.9C500.9 455.3 500.6 456.6 500.1 457.9C499.6 459.2 498.8 460.3 497.9 461.1C496 462.8 493.8 463.7 491.3 463.7C491.1 463.7 490.9 463.7 490.7 463.7C489.5 463.7 488.2 463.4 487 462.9C485.8 462.4 484.8 461.7 484 460.9C482.3 459.1 481.5 456.8 481.5 454V453.7V453.4C481.5 452.2 481.7 451 482.2 449.8C483.1 447.5 484.6 445.9 486.9 444.8C488.1 444.2 489.4 443.9 490.8 443.9ZM490.8 446.5H490.4C489.3 446.5 488.4 447.1 487.7 448.4C487 449.7 486.6 451.2 486.6 452.9V454C486.6 456 487 457.7 487.8 459C488.6 460.3 489.6 461.1 490.7 461.1H491.1C492.1 461.1 493 460.6 493.7 459.6C494.4 458.6 494.8 457.2 494.8 455.5V455.1V454.3V454V453.8V453.4C494.8 453.1 494.8 452.9 494.8 452.8C494.8 451.1 494.4 449.6 493.6 448.4C492.8 447.1 491.9 446.5 490.8 446.5Z" fill="#49B577"/>
<path d="M516.9 444.6C518 444.6 518.7 444.8 519.1 445.3C519.5 445.8 519.7 446.3 519.7 446.9C519.7 447.5 519.5 448.1 519.2 448.6C518.9 449.1 518.5 449.4 518 449.4C517.6 449.4 517 449.2 516.2 448.9C515.4 448.6 514.8 448.4 514.4 448.4C514 448.4 513.5 448.6 513 449.1C512.5 449.5 512.1 450.2 511.9 451C511.7 451.8 511.6 453.1 511.6 454.9C511.6 456.7 511.7 457.8 512 458.3C512.2 458.8 512.8 459.5 513.5 460.3C514.3 461.1 514.7 461.8 514.7 462.4C514.7 463 513.2 463.3 510.2 463.3H508.5H508.1C507.8 463.3 507.5 463.3 507.3 463.3H506.9C506.6 463.3 506.3 463.3 506 463.3C504.6 463.3 503.9 463 503.9 462.4C503.9 461.8 504.2 461.2 504.9 460.6C505.6 460 506 459.5 506.1 459C506.2 458.5 506.3 456.9 506.3 454C506.3 451.2 506.2 449.5 506 448.9C505.8 448.3 505.4 447.9 504.7 447.5C504 447.1 503.7 446.7 503.7 446.3C503.7 445.7 504.1 445.3 505 445C506.4 444.6 507.6 444.5 508.7 444.5C509.8 444.5 510.5 444.6 510.9 444.9C511.1 445 511.2 445.3 511.4 445.9C511.6 446.5 511.8 446.7 512.1 446.7C512.2 446.7 512.5 446.6 512.8 446.3C514.5 445.1 515.8 444.6 516.9 444.6Z" fill="#49B577"/>
<path d="M527.5 455.9C527.5 457.2 528.1 458.3 529.3 459.3C530.2 460 531.4 460.4 532.8 460.4C533.4 460.4 534.4 460.2 535.6 459.9C536.9 459.5 537.6 459.4 537.8 459.4C538.4 459.4 538.7 459.7 538.7 460.4C538.7 461.2 537.9 461.9 536.4 462.7C534.8 463.5 533.2 463.9 531.6 463.9H530.7H530.6C529.5 463.9 528.5 463.7 527.4 463.3C525.2 462.5 523.7 461 522.8 458.9C522.2 457.5 521.9 456.1 521.9 454.8V453.9C521.9 452.6 522.1 451.3 522.6 450.1C523.5 447.8 525 446.1 527.2 445.1C528.5 444.5 529.9 444.2 531.3 444.2H531.7C533.8 444.2 535.6 444.9 537.1 446.2C537.9 446.9 538.5 447.7 538.9 448.7C539.3 449.7 539.5 450.7 539.5 451.7C539.5 452.7 539 453.4 538 453.7C536.6 454.2 534 454.4 530.2 454.4C529.2 454.4 528.5 454.5 528.2 454.8C527.7 454.8 527.5 455.2 527.5 455.9ZM531.3 446.6H530.7C529.9 446.6 529.1 447 528.3 447.9C527.6 448.8 527.2 449.8 527.2 451V451.3C527.2 451.8 527.5 452 528 452H528.2H529.6H529.7L533 451.8C533.2 451.8 533.3 451.7 533.4 451.7C534.1 451.7 534.4 451.4 534.4 450.7V450C534.4 449.1 534.1 448.3 533.5 447.6C532.8 446.9 532.1 446.6 531.3 446.6Z" fill="#49B577"/>
<path d="M568.4 459.1C568.9 459.1 569.2 459.4 569.2 460.1C569.2 460.8 568.4 461.6 566.7 462.4C565 463.2 563.5 463.6 561.9 463.6H561.5C560.2 463.6 559 463.3 557.8 462.8C555.5 461.8 554 460.1 553.1 457.7C552.7 456.5 552.5 455.4 552.5 454.2V453.7C552.5 451.1 553.4 448.8 555.1 446.9C556 445.9 557 445.2 558.3 444.7C559.5 444.2 560.8 443.9 562.1 443.9C564.6 443.9 566.5 444.3 567.8 445C568.6 445.4 569 446.2 569 447.2C569 449 568.4 449.9 567.3 449.9C566.6 449.9 565.8 449.4 564.8 448.4C563.8 447.4 562.8 446.9 561.8 446.9C560.5 446.9 559.4 447.7 558.6 449.3C558.1 450.2 557.9 451.7 557.9 453.6V453.7C557.9 455.6 558.4 457.1 559.4 458.4C560.4 459.6 561.6 460.3 563.2 460.3C564 460.3 565.1 460.1 566.3 459.7C567.5 459.3 568.2 459.1 568.4 459.1Z" fill="#49B577"/>
<path d="M581.6 443.9H582.6C583.8 443.9 585 444.2 586.2 444.7C588.5 445.7 590.1 447.4 591 449.8C591.4 451 591.7 452.2 591.7 453.5V453.9C591.7 455.3 591.4 456.6 590.9 457.9C590.4 459.2 589.6 460.3 588.7 461.1C586.8 462.8 584.6 463.7 582.1 463.7C581.9 463.7 581.7 463.7 581.5 463.7C580.3 463.7 579 463.4 577.8 462.9C576.6 462.4 575.6 461.7 574.8 460.9C573.1 459.1 572.3 456.8 572.3 454V453.7V453.4C572.3 452.2 572.5 451 573 449.8C573.9 447.5 575.4 445.9 577.7 444.8C578.9 444.2 580.2 443.9 581.6 443.9ZM581.5 446.5H581.1C580 446.5 579.1 447.1 578.4 448.4C577.7 449.7 577.3 451.2 577.3 452.9V454C577.3 456 577.7 457.7 578.5 459C579.3 460.3 580.3 461.1 581.4 461.1H581.8C582.8 461.1 583.7 460.6 584.4 459.6C585.1 458.6 585.5 457.2 585.5 455.5V455.1V454.3V454V453.8V453.4C585.5 453.1 585.5 452.9 585.5 452.8C585.5 451.1 585.1 449.6 584.3 448.4C583.6 447.1 582.6 446.5 581.5 446.5Z" fill="#49B577"/>
<path d="M628 461.4C628 462.6 626.3 463.2 622.8 463.2C621.7 463.2 620.9 463.1 620.5 462.8C620.1 462.5 619.9 462.1 619.9 461.4L620.2 460.2C620.4 458.9 620.6 456.9 620.6 454.2C620.6 451.5 620.4 449.7 619.9 448.8C619.4 447.9 618.5 447.5 617.2 447.5C616.7 447.5 616.2 447.7 615.7 448C615.2 448.4 614.8 448.8 614.5 449.5C614.2 450.1 614.1 451.7 614.1 454.2C614.1 456.7 614.2 458.3 614.3 458.7C614.4 459.2 614.8 459.8 615.3 460.4C615.8 461.1 616.1 461.6 616.1 462C616.1 462.4 615.8 462.7 615.3 462.8C614.8 463 613.5 463.1 611.3 463.1C609.2 463.1 607.9 463 607.6 462.8C607.3 462.6 607.1 462.2 607.1 461.6C607.1 461.4 607.3 461 607.8 460.5C608.2 459.9 608.5 459.4 608.6 458.9C608.7 458.4 608.8 456.9 608.8 454.4C608.8 451.9 608.6 450.1 608.2 449.1C607.8 448.1 607 447.6 605.9 447.6C604.8 447.6 603.9 448.1 603.1 449.1C602.6 449.8 602.3 450.8 602.3 452C602.3 453.2 602.4 454.7 602.5 456.4C602.6 458.1 602.7 459.2 602.9 459.9C603 460.6 603.1 461.1 603.1 461.6C603.1 462.1 602.9 462.4 602.5 462.7C602.1 463 601.1 463.1 599.5 463.1C596.5 463.1 595 462.6 595 461.5C595 461.1 595.3 460.6 595.9 460C596.5 459.3 596.8 458.9 596.9 458.6C597 458.3 597 456.9 597 454.3C597 451.7 596.8 450 596.5 449C596.4 448.8 596.2 448.3 595.7 447.6C595.3 446.9 595.1 446.4 595.1 446.1C595.1 445.6 595.5 445.2 596.3 445C597.8 444.6 599.1 444.3 600.3 444.3C600.7 444.3 601.1 444.6 601.7 445.1C602.2 445.7 602.6 445.9 602.7 445.9L603.3 445.5C604.1 445.1 604.6 444.8 604.8 444.7C606 444.2 607.1 443.9 608.2 443.9C609.3 443.9 610.1 444 610.6 444.3C611.1 444.5 611.7 444.9 612.3 445.3C612.9 445.7 613.4 446 613.7 446C614 446 614.8 445.7 616.2 445C617.6 444.4 618.9 444 620.1 444C622.3 444 623.9 445 624.9 446.9C625.6 448.1 625.9 451.5 625.9 456.8C625.9 458.2 626 459 626.1 459.3C626.2 459.6 626.6 460 627.2 460.4C627.7 460.9 628 461.2 628 461.4Z" fill="#49B577"/>
<path d="M243.5 513.9C243.5 515 243.8 515.9 244.4 516.6L245.3 517.5C245.8 518 246 518.4 246 518.7C246 519.1 245.7 519.4 245.1 519.6C244.5 519.8 243.3 519.8 241.4 519.8H240.9C238.7 519.8 237.3 519.7 236.8 519.5C236.3 519.3 236 519.1 236 518.7C236 518.6 236.3 518 237 517C237.6 516 238 515 238.2 513.9C238.3 513.5 238.3 510.8 238.3 505.5C238.3 500.2 238.2 497.4 238.1 496.8C238 496.2 237.6 495.7 236.9 495.2C236.2 494.7 235.8 494.2 235.8 493.8C235.8 493.4 236.1 493 236.7 492.8C238.4 492.2 240 491.9 241.5 491.9C241.9 491.9 242.2 492 242.4 492.2C242.6 492.4 242.8 492.6 243 492.9C243.2 493.2 243.4 493.3 243.5 493.3C243.7 493.3 244 493.2 244.5 492.9C245 492.6 245.6 492.3 246.2 492.1C246.8 491.8 247.7 491.7 248.7 491.7H249.2C250.1 491.7 251.1 492 252 492.5C253 493 253.8 493.7 254.4 494.5C255.7 496.2 256.4 498.3 256.4 500.8C256.4 503.9 255.5 506.4 253.7 508.3C252.8 509.3 251.7 510 250.7 510.4C249.7 510.8 248.4 511 247 511C247 511 246.5 510.9 245.5 510.8L244.7 510.7L244.3 510.6C243.8 510.8 243.5 511.9 243.5 513.9ZM250.9 501.8V500.7C250.9 499 250.4 497.6 249.5 496.3C248.8 495.3 247.9 494.9 246.7 494.9H246.5C245.4 494.9 244.5 495.3 243.8 496.2C243.4 496.8 243.2 497.7 243.2 499V499.4L243.1 501.1V502.9V503.1V503.5V503.7C243.1 503.8 243.1 504 243.1 504.1V504.7V505.4C243.1 506.5 243.4 507.3 244 508C244.6 508.7 245.4 509 246.3 509H246.7C248 509 249 508.3 249.9 506.9C250.5 505.9 250.8 504.4 250.8 502.3V502L250.9 501.8Z" fill="#49B577"/>
<path d="M265.3 503.9C265.3 505.2 265.9 506.3 267.1 507.3C268 508 269.2 508.4 270.6 508.4C271.2 508.4 272.2 508.2 273.4 507.9C274.7 507.5 275.4 507.4 275.6 507.4C276.2 507.4 276.5 507.7 276.5 508.4C276.5 509.2 275.7 509.9 274.2 510.7C272.6 511.5 271 511.9 269.4 511.9H268.5H268.4C267.3 511.9 266.3 511.7 265.2 511.3C263 510.5 261.5 509 260.6 506.9C260 505.5 259.7 504.1 259.7 502.8V501.9C259.7 500.6 259.9 499.3 260.4 498.1C261.3 495.8 262.8 494.1 265 493.1C266.3 492.5 267.7 492.2 269.1 492.2H269.5C271.6 492.2 273.4 492.9 274.9 494.2C275.7 494.9 276.3 495.7 276.7 496.7C277.1 497.7 277.3 498.7 277.3 499.7C277.3 500.7 276.8 501.4 275.8 501.7C274.4 502.2 271.8 502.4 268 502.4C267 502.4 266.3 502.5 266 502.8C265.5 502.8 265.3 503.2 265.3 503.9ZM269.1 494.6H268.5C267.7 494.6 266.9 495 266.1 495.9C265.4 496.8 265 497.8 265 499V499.3C265 499.8 265.3 500 265.8 500H266H267.4H267.5L270.8 499.8C271 499.8 271.1 499.7 271.2 499.7C271.9 499.7 272.2 499.4 272.2 498.7V498C272.2 497.1 271.9 496.3 271.3 495.6C270.6 494.9 269.9 494.6 269.1 494.6Z" fill="#49B577"/>
<path d="M293.5 512.1C293.5 511 293.2 510.5 292.6 510.5C292.5 510.5 292.3 510.6 291.8 510.7C291.4 510.9 290.9 511 290.3 511.2C289.7 511.4 289 511.4 288.1 511.4H288C287.1 511.4 286.1 511.2 285.2 510.8C283.2 509.9 281.8 508.3 281 505.9C280.6 504.8 280.4 503.6 280.4 502.4V501.4C280.4 500.3 280.6 499.1 281.1 497.9C282 495.6 283.5 494 285.6 492.9C286.8 492.3 288 492 289.4 492H290.4C290.9 492 291.6 492.1 292.4 492.3C293.2 492.5 293.9 492.6 294.6 492.6C295.3 492.6 295.8 492.6 296.2 492.6L297.1 492.5C297.3 492.5 297.7 492.5 298.2 492.5C299.2 492.5 299.7 493.4 299.7 495.2C299.7 495.5 299.6 496.2 299.3 497.3C299.1 498.4 298.9 499.5 298.9 500.6V501.1V507.1C298.9 512 299 514.9 299.2 515.7C299.4 516.6 299.6 517.2 300 517.5C300.8 518.4 301.2 518.8 301.2 518.9V519.3C301.2 519.9 300.2 520.2 298.3 520.2H297.3H295.3C293.6 520.2 292.5 520.1 292 520C291.4 519.9 291.1 519.6 291.1 519.2C291.1 518.8 291.4 518.3 291.9 517.8C292.5 517.3 292.8 516.9 293 516.6C293.3 515.7 293.5 514.2 293.5 512.1ZM285.5 501.3V501.7C285.5 503.7 285.9 505.3 286.7 506.6C287.5 507.8 288.6 508.4 289.8 508.4H290C291.2 508.4 292.1 508 292.7 507.1C293.1 506.5 293.3 505 293.3 502.4V500.3C293.3 498 293.1 496.4 292.7 495.6C292.3 494.8 291.4 494.4 290.2 494.4H289.7C288.5 494.4 287.5 495 286.7 496.3C285.9 497.6 285.5 499.3 285.5 501.3Z" fill="#49B577"/>
<path d="M325.1 509.7C325.1 510.8 323.6 511.3 320.6 511.3C319.7 511.3 319.1 511.2 318.8 510.9C318.5 510.7 318.2 510.3 318 509.9C317.8 509.5 317.6 509.3 317.5 509.3C317.4 509.3 317 509.5 316.3 509.9C315.6 510.3 314.9 510.7 314.2 511C313.5 511.3 312.5 511.5 311.3 511.5C310.1 511.5 309.1 511.2 308.2 510.7C307.3 510.2 306.7 509.4 306.2 508.4C305.7 507.4 305.5 505.2 305.5 501.7C305.5 498.2 305.4 496.3 305.3 496C305.2 495.7 304.7 495.4 304 495C303.3 494.7 303 494.3 303 493.8C303 493.2 303.4 492.8 304.2 492.6C305.4 492.3 306.9 492.1 308.7 492.1C309.6 492.1 310.1 492.5 310.4 493.2C310.7 493.9 310.8 496 310.8 499.4C310.8 502.8 310.9 504.9 311.1 505.8C311.4 507 312.1 507.8 313.1 508C313.4 508.1 313.6 508.1 313.9 508.1C314.4 508.1 314.9 508 315.3 507.8C316.1 507.5 316.7 507.1 317.1 506.5C317.5 505.9 317.7 504.5 317.7 502.1C317.7 499.7 317.6 498.1 317.3 497.1C317.1 496.1 316.7 495.3 316.3 494.7C315.9 494 315.7 493.6 315.7 493.3C315.7 492.4 317.4 491.9 320.7 491.9H321.2C321.9 491.9 322.3 492 322.6 492.3C322.8 492.6 323 493.2 323 494.3L322.9 497.1V497.7V500.6C322.9 503.5 323 505.2 323.1 505.9C323.3 506.6 323.6 507.3 324.2 508C324.8 508.7 325.1 509.6 325.1 509.7Z" fill="#49B577"/>
<path d="M333.5 503.9C333.5 505.2 334.1 506.3 335.3 507.3C336.2 508 337.4 508.4 338.8 508.4C339.4 508.4 340.4 508.2 341.6 507.9C342.9 507.5 343.6 507.4 343.8 507.4C344.4 507.4 344.7 507.7 344.7 508.4C344.7 509.2 343.9 509.9 342.4 510.7C340.8 511.5 339.2 511.9 337.6 511.9H336.7H336.6C335.5 511.9 334.5 511.7 333.4 511.3C331.2 510.5 329.7 509 328.8 506.9C328.2 505.5 327.9 504.1 327.9 502.8V501.9C327.9 500.6 328.1 499.3 328.6 498.1C329.5 495.8 331 494.1 333.2 493.1C334.5 492.5 335.9 492.2 337.3 492.2H337.7C339.8 492.2 341.6 492.9 343.1 494.2C343.9 494.9 344.5 495.7 344.9 496.7C345.3 497.7 345.5 498.7 345.5 499.7C345.5 500.7 345 501.4 344 501.7C342.6 502.2 340 502.4 336.2 502.4C335.2 502.4 334.5 502.5 334.2 502.8C333.7 502.8 333.5 503.2 333.5 503.9ZM337.3 494.6H336.7C335.9 494.6 335.1 495 334.3 495.9C333.6 496.8 333.2 497.8 333.2 499V499.3C333.2 499.8 333.5 500 334 500H334.2H335.6H335.7L339 499.8C339.2 499.8 339.3 499.7 339.4 499.7C340.1 499.7 340.4 499.4 340.4 498.7V498C340.4 497.1 340.1 496.3 339.5 495.6C338.8 494.9 338.1 494.6 337.3 494.6Z" fill="#49B577"/>
<path d="M371 509.8C371 510.3 370.6 510.6 369.8 510.9C369 511.1 367.7 511.2 365.8 511.2C363.9 511.2 362.8 511.1 362.5 510.8C362.1 510.5 362 510.2 362 509.9C362 509.5 362.2 509 362.5 508.3C362.8 507.6 363 507 363.1 506.5C363.2 506.1 363.2 504.6 363.2 502C363.2 499.4 363 497.7 362.5 496.8C362.1 495.9 361.2 495.4 359.9 495.4C358.6 495.4 357.6 496 356.8 497.1C356.3 497.8 356 499.2 356 501.2C356 504.5 356.3 506.9 356.9 508.4C357.3 509.3 357.4 509.9 357.4 510.1C357.4 510.6 357.1 510.9 356.5 511C355.9 511.1 354.6 511.2 352.6 511.2C350.6 511.2 349.4 511.1 349 510.8C348.6 510.5 348.4 510.2 348.4 509.7C348.4 509.2 348.7 508.8 349.4 508.3C350.1 507.8 350.5 507.4 350.6 507.1C350.7 506.7 350.7 505.1 350.7 502.1C350.7 499.2 350.6 497.4 350.4 496.9C350.2 496.4 349.8 495.8 349.2 495.2C348.6 494.6 348.3 494.2 348.3 494.2V493.8C348.3 493.6 348.5 493.4 348.8 493.2C349.9 492.5 351.6 492.2 353.9 492.2C354.5 492.2 355 492.5 355.5 493.1C355.9 493.7 356.2 494 356.4 494C356.6 494 357.1 493.8 357.8 493.4C358.5 493 358.9 492.8 359 492.7C360 492.2 361 492 361.9 492H362.5C364.8 492 366.4 492.9 367.4 494.7C368 495.9 368.3 498.7 368.3 503.2C368.3 505.6 368.4 507 368.5 507.3C368.7 507.6 369.1 508 369.8 508.5C370.6 509 371 509.4 371 509.8Z" fill="#49B577"/>
<path d="M382.9 491.9H383.9C385.1 491.9 386.3 492.2 387.5 492.7C389.8 493.7 391.4 495.4 392.3 497.8C392.7 499 393 500.2 393 501.5V501.9C393 503.3 392.7 504.6 392.2 505.9C391.7 507.2 390.9 508.3 390 509.1C388.1 510.8 385.9 511.7 383.4 511.7C383.2 511.7 383 511.7 382.8 511.7C381.6 511.7 380.3 511.4 379.1 510.9C377.9 510.4 376.9 509.7 376.1 508.9C374.4 507.1 373.6 504.8 373.6 502V501.7V501.4C373.6 500.2 373.8 499 374.3 497.8C375.2 495.5 376.7 493.9 379 492.8C380.3 492.2 381.6 491.9 382.9 491.9ZM382.9 494.5H382.5C381.4 494.5 380.5 495.1 379.8 496.4C379.1 497.7 378.7 499.2 378.7 500.9V502C378.7 504 379.1 505.7 379.9 507C380.7 508.3 381.7 509.1 382.8 509.1H383.2C384.2 509.1 385.1 508.6 385.8 507.6C386.5 506.6 386.9 505.2 386.9 503.5V503.1V502.3V502V501.8V501.4C386.9 501.1 386.9 500.9 386.9 500.8C386.9 499.1 386.5 497.6 385.7 496.4C385 495.1 384 494.5 382.9 494.5Z" fill="#49B577"/>
<path d="M410 495C410 496.1 409.9 496.8 409.8 497.2C409.7 497.6 409.3 497.7 408.9 497.7C408.2 497.7 407.4 497.2 406.5 496.1C405.6 495 404.6 494.5 403.3 494.5C402.6 494.5 402 494.7 401.6 495.1C401.2 495.5 401 495.9 401 496.3C401 497.1 401.4 497.7 402.1 498.3C402.5 498.5 403.6 499.1 405.6 499.9C407.6 500.7 409 501.6 409.8 502.5C410.7 503.4 411.1 504.6 411.1 506.1C411.1 507.6 410.5 508.9 409.2 510C407.9 511.1 406.3 511.7 404.2 511.7H403.2C400.7 511.7 398.8 511.4 397.5 510.8C396.6 510.4 396.2 509.4 396.2 507.8C396.2 506.2 396.5 505.5 397.1 505.5C397.8 505.5 398.8 506.1 399.9 507.3C401 508.5 402.2 509.1 403.5 509.1C404.3 509.1 404.9 508.9 405.5 508.6C406 508.3 406.3 507.7 406.3 507C406.3 506.3 405.9 505.7 405.2 505.1C404.8 504.8 403.7 504.3 401.9 503.5C400.1 502.7 398.9 502 398.1 501.3C397 500.2 396.4 498.9 396.4 497.4C396.4 495.8 397.1 494.6 398.4 493.5C399.7 492.5 401.3 492 403 492H403.5C406.3 492 408.2 492.3 409.2 492.9C409.7 493.2 410 493.9 410 495Z" fill="#49B577"/>
<path d="M431.8 513.9C431.8 515 432.1 515.9 432.7 516.6L433.6 517.5C434.1 518 434.3 518.4 434.3 518.7C434.3 519.1 434 519.4 433.4 519.6C432.8 519.8 431.6 519.8 429.7 519.8H429.2C427 519.8 425.6 519.7 425.1 519.5C424.6 519.3 424.3 519.1 424.3 518.7C424.3 518.6 424.6 518 425.3 517C425.9 516 426.3 515 426.5 513.9C426.6 513.5 426.6 510.8 426.6 505.5C426.6 500.2 426.5 497.4 426.4 496.8C426.3 496.2 425.9 495.7 425.2 495.2C424.5 494.7 424.1 494.2 424.1 493.8C424.1 493.4 424.4 493 425 492.8C426.7 492.2 428.3 491.9 429.8 491.9C430.2 491.9 430.5 492 430.7 492.2C430.9 492.4 431.1 492.6 431.3 492.9C431.5 493.2 431.7 493.3 431.8 493.3C432 493.3 432.3 493.2 432.8 492.9C433.3 492.6 433.9 492.3 434.5 492.1C435.1 491.8 436 491.7 437 491.7H437.5C438.4 491.7 439.4 492 440.3 492.5C441.3 493 442.1 493.7 442.7 494.5C444 496.2 444.7 498.3 444.7 500.8C444.7 503.9 443.8 506.4 442 508.3C441.1 509.3 440 510 439 510.4C438 510.8 436.7 511 435.3 511C435.3 511 434.8 510.9 433.8 510.8L433 510.7L432.6 510.6C432 510.8 431.8 511.9 431.8 513.9ZM439.1 501.8V500.7C439.1 499 438.6 497.6 437.7 496.3C437 495.3 436.1 494.9 434.9 494.9H434.7C433.6 494.9 432.7 495.3 432 496.2C431.6 496.8 431.4 497.7 431.4 499V499.4L431.3 501.1V502.9V503.1V503.5V503.7C431.3 503.8 431.3 504 431.3 504.1V504.7V505.4C431.3 506.5 431.6 507.3 432.2 508C432.8 508.7 433.6 509 434.5 509H434.9C436.2 509 437.2 508.3 438.1 506.9C438.7 505.9 439 504.4 439 502.3V502L439.1 501.8Z" fill="#49B577"/>
<path d="M461.1 492.6C462.2 492.6 462.9 492.8 463.3 493.3C463.7 493.8 463.9 494.3 463.9 494.9C463.9 495.5 463.7 496.1 463.4 496.6C463.1 497.1 462.7 497.4 462.2 497.4C461.8 497.4 461.2 497.2 460.4 496.9C459.6 496.6 459 496.4 458.6 496.4C458.2 496.4 457.7 496.6 457.2 497.1C456.7 497.5 456.3 498.2 456.1 499C455.9 499.8 455.8 501.1 455.8 502.9C455.8 504.7 455.9 505.8 456.2 506.3C456.4 506.8 457 507.5 457.7 508.3C458.5 509.1 458.9 509.8 458.9 510.4C458.9 511 457.4 511.3 454.4 511.3H452.7H452.3C452 511.3 451.7 511.3 451.5 511.3H451.1C450.8 511.3 450.5 511.3 450.2 511.3C448.8 511.3 448.1 511 448.1 510.4C448.1 509.8 448.4 509.2 449.1 508.6C449.8 508 450.2 507.5 450.3 507C450.4 506.5 450.5 504.9 450.5 502C450.5 499.2 450.4 497.5 450.2 496.9C450 496.3 449.6 495.9 448.9 495.5C448.2 495.1 447.9 494.7 447.9 494.3C447.9 493.7 448.3 493.3 449.2 493C450.6 492.6 451.8 492.5 452.9 492.5C454 492.5 454.7 492.6 455.1 492.9C455.3 493 455.4 493.3 455.6 493.9C455.8 494.5 456 494.7 456.3 494.7C456.4 494.7 456.7 494.6 457 494.3C458.8 493.1 460 492.6 461.1 492.6Z" fill="#49B577"/>
<path d="M475.7 491.9H476.7C477.9 491.9 479.1 492.2 480.3 492.7C482.6 493.7 484.2 495.4 485.1 497.8C485.5 499 485.8 500.2 485.8 501.5V501.9C485.8 503.3 485.5 504.6 485 505.9C484.5 507.2 483.7 508.3 482.8 509.1C480.9 510.8 478.7 511.7 476.2 511.7C476 511.7 475.8 511.7 475.6 511.7C474.4 511.7 473.1 511.4 471.9 510.9C470.7 510.4 469.7 509.7 468.9 508.9C467.2 507.1 466.4 504.8 466.4 502V501.7V501.4C466.4 500.2 466.6 499 467.1 497.8C468 495.5 469.5 493.9 471.8 492.8C473 492.2 474.3 491.9 475.7 491.9ZM475.6 494.5H475.2C474.1 494.5 473.2 495.1 472.5 496.4C471.8 497.7 471.4 499.2 471.4 500.9V502C471.4 504 471.8 505.7 472.6 507C473.4 508.3 474.4 509.1 475.5 509.1H475.9C476.9 509.1 477.8 508.6 478.5 507.6C479.2 506.6 479.6 505.2 479.6 503.5V503.1V502.3V502V501.8V501.4C479.6 501.1 479.6 500.9 479.6 500.8C479.6 499.1 479.2 497.6 478.4 496.4C477.7 495.1 476.7 494.5 475.6 494.5Z" fill="#49B577"/>
<path d="M500.9 492.5C501.5 492.5 501.8 491.8 501.8 490.4C501.8 488.1 501.3 486.5 500.3 485.7C499.6 485.1 499.2 484.6 499.2 484.4C499.2 484 499.8 483.6 501 483.2C502.2 482.8 503.3 482.6 504.3 482.6C505.3 482.6 506 482.7 506.3 482.9C506.6 483.1 506.8 483.6 506.9 484.3C507 485 507.1 488.7 507.1 495.1C507.1 501.6 507.2 505.2 507.3 506.1C507.4 506.9 507.7 507.6 508.1 508.1C508.1 508.1 508.4 508.3 508.8 508.7C509.3 509 509.5 509.3 509.5 509.5V509.8C509.5 510 509.4 510.2 509.1 510.4C508.3 511.1 506.6 511.4 504 511.4C503.3 511.4 502.8 511.2 502.4 510.7C502 510.2 501.8 510 501.8 510C501.6 510 501.1 510.2 500.5 510.5C499.1 511.3 497.8 511.6 496.6 511.6C496.6 511.6 496.6 511.6 496.5 511.6H496C495 511.6 494.1 511.4 493.2 510.9C491.3 510 489.9 508.4 489.1 506.2C488.7 505.1 488.5 503.9 488.5 502.7V502.2V502.1C488.5 500.6 488.8 499.2 489.3 497.9C490.8 494.1 493.6 492.2 497.7 492.2C498.7 492.2 499.3 492.2 499.5 492.2H499.9C500.6 492.5 500.9 492.5 500.9 492.5ZM498.1 508.8H498.4C499.6 508.8 500.5 508.4 501 507.5C501.4 506.9 501.6 505.5 501.6 503.4V500.7C501.6 498.4 501.4 496.9 500.9 496.1C500.4 495.3 499.5 494.9 498.2 494.9H498C496.8 494.9 495.8 495.5 495 496.7C494.2 497.9 493.8 499.4 493.8 501.2V502.5C493.8 504.2 494.1 505.5 494.8 506.6C495.7 508 496.8 508.8 498.1 508.8Z" fill="#49B577"/>
<path d="M533.9 509.7C533.9 510.8 532.4 511.3 529.4 511.3C528.5 511.3 527.9 511.2 527.6 510.9C527.3 510.7 527 510.3 526.8 509.9C526.6 509.5 526.4 509.3 526.3 509.3C526.2 509.3 525.8 509.5 525.1 509.9C524.4 510.3 523.7 510.7 523 511C522.3 511.3 521.3 511.5 520.1 511.5C518.9 511.5 517.9 511.2 517 510.7C516.1 510.2 515.5 509.4 515 508.4C514.5 507.4 514.3 505.2 514.3 501.7C514.3 498.2 514.2 496.3 514.1 496C514 495.7 513.5 495.4 512.8 495C512.1 494.7 511.8 494.3 511.8 493.8C511.8 493.2 512.2 492.8 513 492.6C514.2 492.3 515.7 492.1 517.5 492.1C518.4 492.1 518.9 492.5 519.2 493.2C519.5 493.9 519.6 496 519.6 499.4C519.6 502.8 519.7 504.9 519.9 505.8C520.2 507 520.9 507.8 521.9 508C522.2 508.1 522.4 508.1 522.7 508.1C523.2 508.1 523.7 508 524.1 507.8C524.9 507.5 525.5 507.1 525.9 506.5C526.3 505.9 526.5 504.5 526.5 502.1C526.5 499.7 526.4 498.1 526.1 497.1C525.9 496.1 525.5 495.3 525.1 494.7C524.7 494 524.5 493.6 524.5 493.3C524.5 492.4 526.2 491.9 529.5 491.9H530C530.7 491.9 531.1 492 531.4 492.3C531.6 492.6 531.8 493.2 531.8 494.3L531.7 497.1V497.7V500.6C531.7 503.5 531.8 505.2 531.9 505.9C532.1 506.6 532.4 507.3 533 508C533.6 508.7 533.9 509.6 533.9 509.7Z" fill="#49B577"/>
<path d="M537.3 495C536.7 494.6 536.4 494.2 536.4 493.9C536.4 493.6 536.7 493.2 537.4 492.8C538.1 492.4 538.5 492.1 538.7 491.9C538.9 491.7 539.1 491.1 539.5 490.1C539.9 489.1 540.3 488.3 540.7 487.8C541.1 487.3 541.7 487 542.3 487C543 487 543.5 487.3 543.8 487.8C543.9 488 544.1 488.6 544.3 489.6C544.5 490.5 544.8 491.1 545.1 491.4C545.4 491.7 546 492 546.8 492.3C547.6 492.6 548.1 492.8 548.1 492.8C548.5 493.2 548.8 493.6 548.8 494C548.8 494.4 548.2 494.8 547 495.1C545.8 495.4 545 495.9 544.6 496.6C544.3 497.3 544.1 498.9 544.1 501.6C544.1 504.3 544.3 506 544.7 506.8C545.1 507.6 545.8 508 546.7 508L547.4 507.9C547.7 507.9 548.1 507.9 548.4 507.9C549.2 507.9 549.6 508.2 549.6 508.8C549.6 509.6 549.1 510.2 548.2 510.6C546.8 511.3 545.4 511.6 543.8 511.6C543.1 511.6 542.4 511.4 541.7 511C541 510.6 540.4 510.1 540.1 509.6C539.4 508.5 539 506.9 539 504.9V504.5C539 504.2 539 503.9 539 503.5V502.3C539 500 538.8 498.1 538.5 496.5C538.2 495.9 537.9 495.4 537.3 495Z" fill="#49B577"/>
<path d="M561.9 491.9H562.9C564.1 491.9 565.3 492.2 566.5 492.7C568.8 493.7 570.4 495.4 571.3 497.8C571.7 499 572 500.2 572 501.5V501.9C572 503.3 571.7 504.6 571.2 505.9C570.7 507.2 569.9 508.3 569 509.1C567.1 510.8 564.9 511.7 562.4 511.7C562.2 511.7 562 511.7 561.8 511.7C560.6 511.7 559.3 511.4 558.1 510.9C556.9 510.4 555.9 509.7 555.1 508.9C553.4 507.1 552.6 504.8 552.6 502V501.7V501.4C552.6 500.2 552.8 499 553.3 497.8C554.2 495.5 555.7 493.9 558 492.8C559.3 492.2 560.6 491.9 561.9 491.9ZM561.9 494.5H561.5C560.4 494.5 559.5 495.1 558.8 496.4C558.1 497.7 557.7 499.2 557.7 500.9V502C557.7 504 558.1 505.7 558.9 507C559.7 508.3 560.7 509.1 561.8 509.1H562.2C563.2 509.1 564.1 508.6 564.8 507.6C565.5 506.6 565.9 505.2 565.9 503.5V503.1V502.3V502V501.8V501.4C565.9 501.1 565.9 500.9 565.9 500.8C565.9 499.1 565.5 497.6 564.7 496.4C564 495.1 563 494.5 561.9 494.5Z" fill="#49B577"/>
<path d="M588 492.6C589.1 492.6 589.8 492.8 590.2 493.3C590.6 493.8 590.8 494.3 590.8 494.9C590.8 495.5 590.6 496.1 590.3 496.6C590 497.1 589.6 497.4 589.1 497.4C588.7 497.4 588.1 497.2 587.3 496.9C586.5 496.6 585.9 496.4 585.5 496.4C585.1 496.4 584.6 496.6 584.1 497.1C583.6 497.5 583.2 498.2 583 499C582.8 499.8 582.7 501.1 582.7 502.9C582.7 504.7 582.8 505.8 583.1 506.3C583.3 506.8 583.9 507.5 584.6 508.3C585.4 509.1 585.8 509.8 585.8 510.4C585.8 511 584.3 511.3 581.3 511.3H579.6H579.2C578.9 511.3 578.6 511.3 578.4 511.3H578C577.7 511.3 577.4 511.3 577.1 511.3C575.7 511.3 575 511 575 510.4C575 509.8 575.3 509.2 576 508.6C576.7 508 577.1 507.5 577.2 507C577.3 506.5 577.4 504.9 577.4 502C577.4 499.2 577.3 497.5 577.1 496.9C576.9 496.3 576.5 495.9 575.8 495.5C575.1 495.1 574.8 494.7 574.8 494.3C574.8 493.7 575.2 493.3 576.1 493C577.5 492.6 578.7 492.5 579.8 492.5C580.9 492.5 581.6 492.6 582 492.9C582.2 493 582.3 493.3 582.5 493.9C582.7 494.5 582.9 494.7 583.2 494.7C583.3 494.7 583.6 494.6 583.9 494.3C585.7 493.1 587 492.6 588 492.6Z" fill="#49B577"/>
<path d="M598.6 503.9C598.6 505.2 599.2 506.3 600.4 507.3C601.3 508 602.5 508.4 603.9 508.4C604.5 508.4 605.5 508.2 606.7 507.9C608 507.5 608.7 507.4 608.9 507.4C609.5 507.4 609.8 507.7 609.8 508.4C609.8 509.2 609 509.9 607.5 510.7C605.9 511.5 604.3 511.9 602.7 511.9H601.8H601.7C600.6 511.9 599.6 511.7 598.5 511.3C596.3 510.5 594.8 509 593.9 506.9C593.3 505.5 593 504.1 593 502.8V501.9C593 500.6 593.2 499.3 593.7 498.1C594.6 495.8 596.1 494.1 598.3 493.1C599.6 492.5 601 492.2 602.4 492.2H602.8C604.9 492.2 606.7 492.9 608.2 494.2C609 494.9 609.6 495.7 610 496.7C610.4 497.7 610.6 498.7 610.6 499.7C610.6 500.7 610.1 501.4 609.1 501.7C607.7 502.2 605.1 502.4 601.3 502.4C600.3 502.4 599.6 502.5 599.3 502.8C598.8 502.8 598.6 503.2 598.6 503.9ZM602.5 494.6H601.9C601.1 494.6 600.3 495 599.5 495.9C598.8 496.8 598.4 497.8 598.4 499V499.3C598.4 499.8 598.7 500 599.2 500H599.4H600.8H600.9L604.2 499.8C604.4 499.8 604.5 499.7 604.6 499.7C605.3 499.7 605.6 499.4 605.6 498.7V498C605.6 497.1 605.3 496.3 604.7 495.6C604 494.9 603.3 494.6 602.5 494.6Z" fill="#49B577"/>
<path d="M627.6 495C627.6 496.1 627.5 496.8 627.4 497.2C627.3 497.6 626.9 497.7 626.5 497.7C625.8 497.7 625 497.2 624.1 496.1C623.2 495 622.2 494.5 620.9 494.5C620.2 494.5 619.6 494.7 619.2 495.1C618.8 495.5 618.6 495.9 618.6 496.3C618.6 497.1 619 497.7 619.7 498.3C620.1 498.5 621.2 499.1 623.2 499.9C625.2 500.7 626.6 501.6 627.4 502.5C628.3 503.4 628.7 504.6 628.7 506.1C628.7 507.6 628.1 508.9 626.8 510C625.5 511.1 623.9 511.7 621.8 511.7H620.8C618.3 511.7 616.4 511.4 615.1 510.8C614.2 510.4 613.8 509.4 613.8 507.8C613.8 506.2 614.1 505.5 614.7 505.5C615.4 505.5 616.4 506.1 617.5 507.3C618.6 508.5 619.8 509.1 621.1 509.1C621.9 509.1 622.5 508.9 623.1 508.6C623.6 508.3 623.9 507.7 623.9 507C623.9 506.3 623.5 505.7 622.8 505.1C622.4 504.8 621.3 504.3 619.5 503.5C617.7 502.7 616.5 502 615.7 501.3C614.6 500.2 614 498.9 614 497.4C614 495.8 614.7 494.6 616 493.5C617.3 492.5 618.9 492 620.6 492H621.1C623.9 492 625.8 492.3 626.8 492.9C627.3 493.2 627.6 493.9 627.6 495Z" fill="#49B577"/>
<path d="M636.7 505.8H637C637.8 505.8 638.5 506.1 639.1 506.6C639.7 507.1 640 507.8 640 508.6V508.9C640 509 640 509.1 640 509.2C640 509.7 639.7 510.3 639.1 510.9C638.5 511.5 637.9 511.8 637.2 511.8H637H636.5C636.4 511.8 636.3 511.8 636.2 511.8C635.6 511.8 635 511.5 634.4 510.9C633.8 510.3 633.5 509.6 633.5 508.8V508.7V508.6C633.5 507.9 633.8 507.2 634.4 506.6C635.1 506.1 635.8 505.8 636.7 505.8ZM633.8 485.2C633.8 483.8 635 483.1 637.3 483.1H637.5C638.3 483.1 638.8 483.3 639.1 483.7C639.4 484.1 639.6 484.7 639.6 485.5V486.4V486.6V487.1C639.6 487.3 639.6 487.4 639.6 487.5V488C639.6 488.3 639.6 488.8 639.6 489.6C639.6 490.3 639.5 491.7 639.2 493.8C639 495.9 638.8 497.7 638.6 499.3C638.5 500.9 638.3 502 638.2 502.5C638.1 503 637.6 503.3 636.7 503.3H636.4C635.7 503.3 635.3 502.8 635.2 501.9C634.2 494.2 633.8 488.9 633.8 486.1V485.2V485.2Z" fill="#49B577"/>
<path d="M882 940.3C849.8 923.6 818.7 903.6 785.4 889.4C709.3 857 620.5 856.9 543.6 886.9C524.7 894.3 506.5 903.5 489.4 914.5C453.8 937.4 420.5 968.4 378.4 973.5C350.7 976.9 323.2 968.3 295.9 962.7C195.3 941.8 87.5 963 0 1016.6V1080H882V996.5V940.3Z" fill="#223F3F"/>
<path d="M882 996.5V1080H0V827.4C28.7 823.6 58.7 824.8 86.9 829.1C155.1 839.3 221.8 863.6 290.8 861.6C337 860.3 382.9 847.1 429 851.9C459.7 855.1 488.9 866.2 517.7 877.1C526.3 880.4 535 883.7 543.6 886.9C604.6 910.1 665.5 933.3 726.5 956.4C775.4 975 825.4 993.8 877.7 996.3C879.1 996.4 880.6 996.5 882 996.5Z" fill="#4EA56D"/>
</svg>
